<svg xmlns="http://www.w3.org/2000/svg" xmlns:xlink="http://www.w3.org/1999/xlink" width="5812" height="3422" viewBox="0 0 5812 3422">
  <defs>
    <filter id="Path_56" x="4688" y="609" width="1036" height="2102" filterUnits="userSpaceOnUse">
      <feOffset dy="13" input="SourceAlpha"/>
      <feGaussianBlur stdDeviation="3" result="blur"/>
      <feFlood flood-opacity="0.161"/>
      <feComposite operator="in" in2="blur"/>
      <feComposite in="SourceGraphic"/>
    </filter>
    <filter id="Path_55" x="3208" y="628" width="1036" height="1636" filterUnits="userSpaceOnUse">
      <feOffset dy="13" input="SourceAlpha"/>
      <feGaussianBlur stdDeviation="3" result="blur-2"/>
      <feFlood flood-opacity="0.161"/>
      <feComposite operator="in" in2="blur-2"/>
      <feComposite in="SourceGraphic"/>
    </filter>
    <filter id="Path_53" x="1728" y="628" width="1036" height="1484" filterUnits="userSpaceOnUse">
      <feOffset dy="13" input="SourceAlpha"/>
      <feGaussianBlur stdDeviation="3" result="blur-3"/>
      <feFlood flood-opacity="0.161"/>
      <feComposite operator="in" in2="blur-3"/>
      <feComposite in="SourceGraphic"/>
    </filter>
    <filter id="Path_54" x="298" y="628" width="1036" height="1177" filterUnits="userSpaceOnUse">
      <feOffset dy="13" input="SourceAlpha"/>
      <feGaussianBlur stdDeviation="3" result="blur-4"/>
      <feFlood flood-opacity="0.161"/>
      <feComposite operator="in" in2="blur-4"/>
      <feComposite in="SourceGraphic"/>
    </filter>
    <clipPath id="clip-path">
      <rect id="Rectangle_4" data-name="Rectangle 4" width="562" height="363"/>
    </clipPath>
    <clipPath id="clip-Web_1920_2">
      <rect width="5812" height="3422"/>
    </clipPath>
  </defs>
  <g id="Web_1920_2" data-name="Web 1920 – 2" clip-path="url(#clip-Web_1920_2)">
    <g transform="matrix(1, 0, 0, 1, 0, 0)" filter="url(#Path_56)">
      <path id="Path_56-2" data-name="Path 56" d="M213,0H805c117.637,0,213,95.363,213,213V1867c0,117.637-95.363,213-213,213H213C95.363,2080,0,1984.637,0,1867V213C0,95.363,95.363,0,213,0Z" transform="translate(4697 609)" fill="#d5d6db"/>
    </g>
    <g transform="matrix(1, 0, 0, 1, 0, 0)" filter="url(#Path_55)">
      <path id="Path_55-2" data-name="Path 55" d="M213,0H805c117.637,0,213,95.363,213,213V1401c0,117.637-95.363,213-213,213H213C95.363,1614,0,1518.637,0,1401V213C0,95.363,95.363,0,213,0Z" transform="translate(3217 628)" fill="#d5d6db"/>
    </g>
    <g transform="matrix(1, 0, 0, 1, 0, 0)" filter="url(#Path_53)">
      <path id="Path_53-2" data-name="Path 53" d="M213,0H805c117.637,0,213,95.363,213,213V1249c0,117.637-95.363,213-213,213H213C95.363,1462,0,1366.637,0,1249V213C0,95.363,95.363,0,213,0Z" transform="translate(1737 628)" fill="#d5d6db"/>
    </g>
    <g transform="matrix(1, 0, 0, 1, 0, 0)" filter="url(#Path_54)">
      <path id="Path_54-2" data-name="Path 54" d="M213,0H805c117.637,0,213,95.363,213,213V942c0,117.637-95.363,213-213,213H213C95.363,1155,0,1059.637,0,942V213C0,95.363,95.363,0,213,0Z" transform="translate(307 628)" fill="#d5d6db"/>
    </g>
    <g id="ladybug1" transform="translate(560.307 352.567) rotate(81)">
      <g id="Group_37" data-name="Group 37" transform="translate(0)">
        <g id="Web_1920_2-2" data-name="Web_1920_2" clip-path="url(#clip-path)">
          <path id="Path_31" d="M1155.869-1956.551l-16.634-7.5-23.376-20.9-17.69-6.683" transform="translate(-883.899 2002.759)" fill="none" stroke="#000" stroke-linecap="round" stroke-linejoin="round" stroke-width="15"/>
          <path id="Path_30" d="M1339.18-1955.533l16.833-9.531L1377-1985.351l17.163-7.319" transform="translate(-1054.417 2003.587)" stroke="#000" stroke-linecap="round" stroke-linejoin="round" stroke-width="15"/>
          <path id="Path_28" d="M877.215-1583.02c43.575,0,111.21,21.7,139.765,50.131s18.035,63.589,18.035,90.493c0,22.68-15.119,43.375-38.746,59.7s-55.763,28.28-89.8,33.481c-6.247.582-10.14-3.077-14.183-6.883s-8.231-7.756-15.072-7.756c-5.838,0-11.6,4.018-17.289,7.856s-11.293,7.5-16.818,6.781c-35.353-4.587-66.275-16.232-88.358-32.557s-35.33-37.323-35.33-60.624c0-26.906-2.84-62.062,25.715-90.491S833.64-1583.02,877.215-1583.02Z" transform="translate(-615.874 1677.527)" fill="#0743e5"/>
          <path id="Path_29" d="M1091.063-1810.25c41.82,0,87.828,20.211,87.828,63.1,0,25.088-26.2,25.507-47.7,32.022-18.374,7.2-16.464,7.242-40.135,9.058-22.5,0-22.407-3.273-43.019-9.058-12.7-7.458-36.421-12.208-36.421-32.022C1011.62-1790.039,1049.24-1810.25,1091.063-1810.25Z" transform="translate(-822.664 1858.39)" fill="#2b2929"/>
          <path id="Path_34" d="M1232.767-1847.705c-53.563-.716-4.3-21.046,7.549-18.928S1286.33-1846.989,1232.767-1847.705Z" transform="translate(-961.803 1903.391)" stroke="#707070" stroke-width="1"/>
          <path id="Path_35" d="M1339.18-1955.533l16.833-9.531L1377-1985.351l17.163-7.319" transform="translate(-1054.417 2003.587)" stroke="#000" stroke-linecap="round" stroke-linejoin="round" stroke-width="15"/>
        </g>
      </g>
      <g id="Group_42" data-name="Group 42" transform="matrix(0.485, 0.875, -0.875, 0.485, 184.814, 231.777)">
        <path id="Path_52" data-name="Path 52" d="M.586,8.934A11.9,11.9,0,0,0,4.8,22.049a16.139,16.139,0,0,0,15.463,1.929c4.969-2.091,8.174-7.019,7.557-11.779C27.133,6.9,22.1,2.561,16.315.749A13.4,13.4,0,0,0,11.1.042C5.587.565,2.433,5.608.218,10.017" transform="translate(-23.186 -0.733)"/>
      </g>
      <g id="Group_91" data-name="Group 91" transform="translate(265.88 170.217)">
        <path id="Path_52-2" data-name="Path 52" d="M928.449-767.98a16.977,16.977,0,0,0,4.045,16.016,12.794,12.794,0,0,0,14.838,2.355c4.768-2.554,7.843-8.572,7.251-14.385-.66-6.473-5.49-11.77-11.041-13.983a10.33,10.33,0,0,0-5.005-.864c-5.288.639-8.315,6.8-10.44,12.182" transform="translate(-905.34 830.731)"/>
      </g>
      <g id="Group_92" data-name="Group 92" transform="translate(197.086 111.939)">
        <path id="Path_52-3" data-name="Path 52" d="M928.475-769.514a12.815,12.815,0,0,0,4.237,13.765,15.652,15.652,0,0,0,15.543,2.024c4.995-2.2,8.216-7.367,7.6-12.362-.692-5.563-5.751-10.116-11.566-12.017a12.938,12.938,0,0,0-5.243-.743c-5.539.549-8.71,5.842-10.936,10.469" transform="translate(-905.34 848.881)"/>
      </g>
      <g id="Group_93" data-name="Group 93" transform="translate(256.616 108.481)">
        <path id="Path_52-4" data-name="Path 52" d="M928.486-770.024a11.607,11.607,0,0,0,4.316,13.016,16.963,16.963,0,0,0,15.834,1.914c5.088-2.076,8.37-6.966,7.738-11.69-.7-5.261-5.858-9.565-11.782-11.363a14.124,14.124,0,0,0-5.341-.7c-5.643.519-8.873,5.524-11.141,9.9" transform="translate(-905.34 850.316)"/>
      </g>
      <g id="Group_94" data-name="Group 94" transform="translate(174.586 180.257)">
        <path id="Path_52-5" data-name="Path 52" d="M928.461-768.865a14.515,14.515,0,0,0,4.132,14.717,14.179,14.179,0,0,0,15.159,2.164A13.432,13.432,0,0,0,955.16-765.2c-.674-5.948-5.609-10.815-11.28-12.848a11.6,11.6,0,0,0-5.114-.794c-5.4.587-8.495,6.246-10.666,11.193" transform="translate(-932.336 751.496)"/>
      </g>
      <g id="Group_95" data-name="Group 95" transform="translate(192.085 214.391)">
        <path id="Path_52-6" data-name="Path 52" d="M928.424-770.349a11.663,11.663,0,0,0,3.865,12.539,14.3,14.3,0,0,0,14.18,1.844c4.557-2,7.5-6.711,6.93-11.261-.631-5.068-5.247-9.215-10.552-10.947a11.822,11.822,0,0,0-4.783-.677c-5.054.5-7.947,5.322-9.978,9.537" transform="translate(-934.225 830.773)"/>
      </g>
      <g id="Group_96" data-name="Group 96" transform="translate(206.085 155.942)">
        <path id="Path_52-7" data-name="Path 52" d="M928.45-768.666a15.186,15.186,0,0,0,4.055,15.01,13.5,13.5,0,0,0,14.876,2.207,13.811,13.811,0,0,0,7.27-13.481c-.662-6.066-5.5-11.03-11.07-13.1a11,11,0,0,0-5.018-.81c-5.3.6-8.337,6.37-10.467,11.416" transform="translate(-905.34 846.496)"/>
      </g>
      <g id="Group_97" data-name="Group 97" transform="translate(316.31 89.061)">
        <path id="Path_52-8" data-name="Path 52" d="M928.474-770.859c-1.583,4.127.1,8.921,4.23,11.789a17.781,17.781,0,0,0,15.518,1.734c4.987-1.88,8.2-6.31,7.584-10.588-.69-4.765-5.742-8.664-11.547-10.293a14.9,14.9,0,0,0-5.235-.636c-5.531.47-8.7,5-10.919,8.967" transform="translate(-905.34 852.666)"/>
      </g>
      <g id="Group_98" data-name="Group 98" transform="translate(316.31 193.061)">
        <path id="Path_52-9" data-name="Path 52" d="M928.474-770.859c-1.583,4.127.1,8.921,4.23,11.789a17.781,17.781,0,0,0,15.518,1.734c4.987-1.88,8.2-6.31,7.584-10.588-.69-4.765-5.742-8.664-11.547-10.293a14.9,14.9,0,0,0-5.235-.636c-5.531.47-8.7,5-10.919,8.967" transform="translate(-919.34 852.666)"/>
      </g>
      <g id="Group_99" data-name="Group 99" transform="translate(325.31 135.061)">
        <path id="Path_52-10" data-name="Path 52" d="M928.474-770.859c-1.583,4.127.1,8.921,4.23,11.789a17.781,17.781,0,0,0,15.518,1.734c4.987-1.88,8.2-6.31,7.584-10.588-.69-4.765-5.742-8.664-11.547-10.293a14.9,14.9,0,0,0-5.235-.636c-5.531.47-8.7,5-10.919,8.967" transform="translate(-905.34 852.666)"/>
      </g>
    </g>
    <text id="BS_Economics_and_Finance_Bentley_University_2004_Waltham_MA_" data-name="BS
 Economics and Finance

Bentley University 2004, Waltham,MA
" transform="translate(1829 794)" font-size="110" font-family="Papyrus" letter-spacing="0.006em"><tspan x="342.045" y="103">BS</tspan><tspan x="28.844" y="217" xml:space="preserve"> Economics and </tspan><tspan x="226.34" y="331">Finance</tspan><tspan x="418" y="445"></tspan><tspan font-size="89"><tspan x="51.529" y="559">Bentley University </tspan><tspan x="34.094" y="673">2004, Waltham,MA</tspan><tspan x="418" y="787"></tspan></tspan></text>
    <text id="Full_Stack_Software_Development_Digital_Crafts_19" data-name="Full Stack Software Development

 Digital Crafts ‘19" transform="translate(425 858)" font-size="110" font-family="Papyrus" letter-spacing="0.006em"><tspan x="142.062" y="103">Full Stack </tspan><tspan x="159.238" y="217">Software </tspan><tspan x="60.226" y="331">Development</tspan><tspan x="387" y="445"></tspan><tspan x="44.15" y="559"> </tspan><tspan y="559" font-size="89">Digital Crafts ‘19</tspan></text>
    <text id="State_Street_Corporation_Lead_team_to_manage_the_collateral_calculation_and_collections_from_brokers_participating_in_ETF_subscriptions_and_redemptions_from_order_inception_until_settlement." data-name="State Street Corporation

Lead team to manage the collateral calculation and collections from brokers participating in ETF subscriptions and redemptions from order inception until settlement." transform="translate(4786 794)" font-size="110" font-family="Papyrus" letter-spacing="0.016em"><tspan x="128.861" y="103">State Street </tspan><tspan x="124.585" y="217">Corporation</tspan><tspan x="439" y="331"></tspan><tspan font-size="89"><tspan x="6.65" y="445">Lead team to manage </tspan><tspan x="172.739" y="559">the collateral </tspan><tspan x="130.721" y="673">calculation and </tspan><tspan x="115.125" y="787">collections from </tspan><tspan x="10.223" y="901">brokers participating </tspan><tspan x="16.541" y="1015">in ETF subscriptions </tspan><tspan x="97.346" y="1129">and redemptions </tspan><tspan x="20.735" y="1243">from order inception </tspan><tspan x="114.696" y="1357">until settlement.</tspan></tspan></text>
    <text id="Rockefeller_Financial_Lead_a_team_to_process_all_activities_related_to_client_portfolios_with_a_net_Asset_value_of_at_least_1_Million_USD." data-name="Rockefeller Financial 

   Lead a team to process all activities related to client portfolios with a net Asset value of at least 1 Million USD." transform="translate(3339 794)" font-size="110" font-family="Papyrus" letter-spacing="0.013em"><tspan x="100.365" y="103">Rockefeller </tspan><tspan x="167.698" y="217">Financial </tspan><tspan x="387" y="331"></tspan><tspan x="47.34" y="445" xml:space="preserve">   </tspan><tspan y="445" font-size="89">Lead a team to </tspan><tspan x="170.057" y="559" font-size="89">process all </tspan><tspan x="2.264" y="673" font-size="89">activities related to </tspan><tspan x="64.614" y="787" font-size="89">client portfolios </tspan><tspan x="66.41" y="901" font-size="89">with a net Asset </tspan><tspan x="45.575" y="1015" font-size="89">value of at least 1 </tspan><tspan x="133.04" y="1129" font-size="89">Million USD.</tspan></text>
  </g>
</svg>
