<svg xmlns="http://www.w3.org/2000/svg" xmlns:xlink="http://www.w3.org/1999/xlink" width="145.492" height="119.841" viewBox="0 0 145.492 119.841">
  <defs>
    <filter id="Path_31" x="36.854" y="2.505" width="53.953" height="41.854" filterUnits="userSpaceOnUse">
      <feOffset dx="10" dy="2" input="SourceAlpha"/>
      <feGaussianBlur stdDeviation="3" result="blur"/>
      <feFlood/>
      <feComposite operator="in" in2="blur"/>
      <feComposite in="SourceGraphic"/>
    </filter>
    <filter id="Path_29" x="0" y="4.929" width="145.492" height="114.912" filterUnits="userSpaceOnUse">
      <feOffset dx="5" dy="-5" input="SourceAlpha"/>
      <feGaussianBlur stdDeviation="8" result="blur-2"/>
      <feFlood flood-opacity="0.89"/>
      <feComposite operator="in" in2="blur-2"/>
      <feComposite in="SourceGraphic"/>
    </filter>
    <filter id="Path_31-2" x="78.434" y="0" width="50.835" height="46.012" filterUnits="userSpaceOnUse">
      <feOffset dx="10" dy="2" input="SourceAlpha"/>
      <feGaussianBlur stdDeviation="3" result="blur-3"/>
      <feFlood/>
      <feComposite operator="in" in2="blur-3"/>
      <feComposite in="SourceGraphic"/>
    </filter>
  </defs>
  <g id="Group_37" data-name="Group 37" transform="translate(19 7.655)">
    <g transform="matrix(1, 0, 0, 1, -19, -7.66)" filter="url(#Path_31)">
      <path id="Path_31-2-2" data-name="Path 31" d="M986.445,357.7l-9.7-4.818-13.624-13.42-10.31-4.292" transform="translate(-915.31 -325.02)" fill="none" stroke="#000" stroke-linecap="round" stroke-linejoin="round" stroke-width="1"/>
    </g>
    <path id="Path_34" data-name="Path 34" d="M985.857,363.791c-31.218-.46-2.508-13.517,4.4-12.157S1017.075,364.251,985.857,363.791Z" transform="translate(-934.308 -332.671)" stroke="#707070" stroke-width="1"/>
    <g transform="matrix(1, 0, 0, 1, -19, -7.66)" filter="url(#Path_29)">
      <path id="Path_29-2" data-name="Path 29" d="M980.612,358.945c24.374,0,51.188,12.981,51.188,40.527,0,16.113-15.267,16.382-27.8,20.567-10.709,4.625-9.6,4.651-23.392,5.818-13.114,0-13.06-2.1-25.073-5.818-7.4-4.79-21.227-7.841-21.227-20.567C934.311,371.926,956.237,358.945,980.612,358.945Z" transform="translate(-915.31 -325.02)" fill="#2b2929"/>
    </g>
    <g transform="matrix(1, 0, 0, 1, -19, -7.66)" filter="url(#Path_31-2)">
      <path id="Path_31-2-3" data-name="Path 31-2" d="M1024.922,332.671l-13.865,5.854-6.127,10.818-10.481,9.978" transform="translate(-915.31 -325.02)" fill="rgba(0,0,0,0)" stroke="#000" stroke-linecap="round" stroke-linejoin="round" stroke-width="1"/>
    </g>
  </g>
</svg>
