<svg class="ladyBugsvg" xmlns="http://www.w3.org/2000/svg" xmlns:xlink="http://www.w3.org/1999/xlink" width="399" height="240" viewBox="0 0 399 240">
  <defs>
    <filter id="Path_529" x="74.979" y="52.346" width="140.673" height="198.258" filterUnits="userSpaceOnUse">
      <feOffset dx="5" dy="-3" input="SourceAlpha"/>
      <feGaussianBlur stdDeviation="8" result="blur"/>
      <feFlood flood-opacity="0.89"/>
      <feComposite operator="in" in2="blur"/>
      <feComposite in="SourceGraphic"/>
    </filter>
    <filter id="Path_528" x="167.408" y="50.075" width="140.372" height="198.202" filterUnits="userSpaceOnUse">
      <feOffset dx="5" dy="-5" input="SourceAlpha"/>
      <feGaussianBlur stdDeviation="8" result="blur-2"/>
      <feFlood flood-opacity="0.886"/>
      <feComposite operator="in" in2="blur-2"/>
      <feComposite in="SourceGraphic"/>
    </filter>
    <filter id="Path_31" x="161.648" y="4.523" width="53.953" height="41.854" filterUnits="userSpaceOnUse">
      <feOffset dx="10" dy="2" input="SourceAlpha"/>
      <feGaussianBlur stdDeviation="3" result="blur-3"/>
      <feFlood/>
      <feComposite operator="in" in2="blur-3"/>
      <feComposite in="SourceGraphic"/>
    </filter>
    <filter id="Path_29" x="124.793" y="6.947" width="145.492" height="114.912" filterUnits="userSpaceOnUse">
      <feOffset dx="5" dy="-5" input="SourceAlpha"/>
      <feGaussianBlur stdDeviation="8" result="blur-4"/>
      <feFlood flood-opacity="0.89"/>
      <feComposite operator="in" in2="blur-4"/>
      <feComposite in="SourceGraphic"/>
    </filter>
    <filter id="Path_31-2" x="203.227" y="2.017" width="50.835" height="46.012" filterUnits="userSpaceOnUse">
      <feOffset dx="10" dy="2" input="SourceAlpha"/>
      <feGaussianBlur stdDeviation="3" result="blur-5"/>
      <feFlood/>
      <feComposite operator="in" in2="blur-5"/>
      <feComposite in="SourceGraphic"/>
    </filter>
    <clipPath id="clip-Web_1920_1">
      <rect width="399" height="240"/>
    </clipPath>
  </defs>
  <g id="Web_1920_1" data-name="Web 1920 – 1" clip-path="url(#clip-Web_1920_1)">
    <g id="Group_1" data-name="Group 1" transform="translate(-808 -632)">
      <path id="Path_28" data-name="Path 28" d="M977.813,535.246c-23.423-.94-58.668-11.155-72.962-27.353s-7.642-38.378-6.644-53.126c.842-12.432,9.735-23.451,23.044-31.891s31.024-14.3,49.513-16.421c3.381-.184,5.255-1.881,7.286.291s4.763.192,8.44.34c3.138.125,4.931-.432,9.632.384s5.759-.163,8.7.352c18.833,3.276,35.023,10.324,46.288,19.747s17.607,21.214,16.741,33.987c-1,14.75-2.5,37.134-18.9,52.107S1001.236,536.184,977.813,535.246Z" transform="translate(17.485 310.002)" stroke="#3c3007" stroke-miterlimit="4.001" stroke-width="1"/>
      <g id="landingLadyL" transform="translate(901.979 711.346)">
        <g transform="matrix(1, 0, 0, 1, -93.98, -79.35)" filter="url(#Path_529)">
          <path id="Path_529-2" data-name="Path 529" d="M976.673,401.344c-25.4.04-58.723,10.384-75.409,28.67s-16.729,44.514-16.77,61.795c-.036,14.966,7.652,28.441,20.5,38.906s30.849,17.916,51.445,20.83c3.219.456,6.492-1.9,9.812-4.371s6.686-5.056,10.088-5.062c.168,0,.331.006.494.014l.334-140.782Z" transform="translate(-790.51 -322)" fill="#0743e5"/>
        </g>
        <g id="Group_93" data-name="Group 93" transform="translate(64.522 90.811)">
          <path id="Path_52-8" data-name="Path 52-8" d="M949.453,498.052c-1.176,3.035.072,6.561,3.143,8.671A13.332,13.332,0,0,0,964.13,508c3.706-1.383,6.1-4.641,5.636-7.787-.513-3.5-4.267-6.372-8.581-7.57a11.179,11.179,0,0,0-3.89-.468c-4.11.346-6.463,3.68-8.114,6.6" transform="translate(-949.016 -492.155)"/>
        </g>
        <g id="Group_94" data-name="Group 94" transform="translate(64.522 59.227)">
          <path id="Path_52-9" data-name="Path 52-9" d="M949.453,466.468c-1.176,3.035.072,6.561,3.143,8.671a13.332,13.332,0,0,0,11.534,1.275c3.706-1.383,6.1-4.641,5.636-7.787-.513-3.5-4.267-6.372-8.581-7.57a11.18,11.18,0,0,0-3.89-.468c-4.11.346-6.463,3.68-8.114,6.6" transform="translate(-949.016 -460.571)"/>
        </g>
        <g id="Group_87" data-name="Group 87" transform="translate(53.612 126.852)">
          <path id="Path_52-10" data-name="Path 52-10" d="M938.543,534.093c-1.176,3.035.072,6.561,3.143,8.671a13.332,13.332,0,0,0,11.534,1.275c3.706-1.383,6.1-4.641,5.636-7.787-.513-3.5-4.267-6.372-8.581-7.57a11.179,11.179,0,0,0-3.89-.468c-4.11.346-6.463,3.68-8.114,6.6" transform="translate(-938.106 -528.196)"/>
        </g>
        <g id="Group_86" data-name="Group 86" transform="translate(28.304 46.431)">
          <path id="Path_52-11" data-name="Path 52-11" d="M913.235,453.672c-1.176,3.035.072,6.561,3.143,8.671a13.332,13.332,0,0,0,11.534,1.275c3.706-1.383,6.1-4.641,5.636-7.787-.513-3.5-4.267-6.372-8.581-7.57a11.18,11.18,0,0,0-3.89-.468c-4.11.346-6.463,3.68-8.114,6.6" transform="translate(-912.798 -447.775)"/>
        </g>
        <g id="Group_47" data-name="Group 47" transform="translate(53.323 28.99)">
          <path id="Path_104" data-name="Path 104" d="M938.672,436.773a16.581,16.581,0,0,0,1.013,5.724,7.882,7.882,0,0,0,4.646,4.357,17.633,17.633,0,0,0,6.079.573c2.135-.048,4.419-.131,6.139-1.108,2.447-1.387,2.877-4.062,2.619-6.389-.461-4.166-3.355-8.811-8.717-9.523a11.876,11.876,0,0,0-8.006,1.988,13.994,13.994,0,0,0-4.628,5.582" transform="translate(-937.817 -430.334)"/>
        </g>
        <g id="Group_95" data-name="Group 95" transform="translate(15.018 71.585)">
          <path id="Path_52-12" data-name="Path 52-12" d="M899.9,478.94c-1.107,3.051.221,6.559,3.34,8.627a13.37,13.37,0,0,0,11.56,1.12c3.675-1.432,5.989-4.722,5.457-7.861-.592-3.495-4.411-6.314-8.751-7.454a11.248,11.248,0,0,0-3.9-.416c-4.1.4-6.377,3.766-7.963,6.7" transform="translate(-899.512 -472.929)"/>
        </g>
        <g id="Group_42" data-name="Group 42" transform="translate(22.397 103.73)">
          <path id="Path_52-13" data-name="Path 52-13" d="M907.276,511.085c-1.107,3.051.221,6.559,3.34,8.627a13.37,13.37,0,0,0,11.56,1.12c3.675-1.432,5.989-4.722,5.457-7.861-.592-3.495-4.411-6.314-8.751-7.454a11.248,11.248,0,0,0-3.9-.416c-4.1.4-6.377,3.766-7.963,6.7" transform="translate(-906.891 -505.074)"/>
        </g>
      </g>
      <g id="landingLadyR" transform="translate(994.408 711.075)">
        <g transform="matrix(1, 0, 0, 1, -186.41, -79.07)" filter="url(#Path_528)">
          <path id="Path_528-2" data-name="Path 528" d="M985.214,547.815c2.356,2.444,4.625,4.794,8.266,4.421,19.837-3.341,38.567-11.019,52.337-21.5s22.582-23.776,22.582-38.343c0-17.28,5.57-43.508-11.073-61.768-16.536-18.147-55-28.421-80.4-28.552V542.848C980.623,543.048,982.958,545.473,985.214,547.815Z" transform="translate(-790.51 -323)" fill="#0743e5"/>
        </g>
        <g id="Group_96" data-name="Group 96" transform="translate(33.409 30.669)">
          <path id="Path_52" data-name="Path 52" d="M1017.657,433.061c-3.886,1.053-6.862,3.9-7.276,7.052s1.8,6.429,5.439,7.921a12.821,12.821,0,0,0,11.508-1.071,8.2,8.2,0,0,0,2.92-9.787,6.362,6.362,0,0,0-1.8-2.7c-2.777-2.348-7.671-1.855-11.711-1.171" transform="translate(-1010.332 -432.742)"/>
        </g>
        <g id="Group_97" data-name="Group 97" transform="translate(64.346 59.396)">
          <path id="Path_52-2" data-name="Path 52-2" d="M1048.594,461.788c-3.886,1.053-6.862,3.9-7.276,7.052s1.805,6.429,5.439,7.921a12.821,12.821,0,0,0,11.508-1.071,8.2,8.2,0,0,0,2.92-9.787,6.361,6.361,0,0,0-1.8-2.7c-2.777-2.348-7.671-1.855-11.711-1.171" transform="translate(-1041.269 -461.469)"/>
        </g>
        <g id="Group_92" data-name="Group 92" transform="translate(17.493 87.187)">
          <path id="Path_52-3" data-name="Path 52-3" d="M1001.741,489.579c-3.886,1.053-6.862,3.9-7.276,7.052s1.8,6.429,5.439,7.921a12.821,12.821,0,0,0,11.508-1.071,8.2,8.2,0,0,0,2.92-9.787,6.36,6.36,0,0,0-1.8-2.7c-2.777-2.348-7.671-1.855-11.711-1.171" transform="translate(-994.416 -489.26)"/>
        </g>
        <g id="Group_91" data-name="Group 91" transform="translate(12.742 129.205)">
          <path id="Path_52-4" data-name="Path 52-4" d="M996.99,531.6c-3.886,1.053-6.862,3.9-7.276,7.052s1.8,6.429,5.439,7.921a12.821,12.821,0,0,0,11.508-1.071,8.2,8.2,0,0,0,2.92-9.787,6.36,6.36,0,0,0-1.8-2.7c-2.777-2.348-7.671-1.855-11.711-1.171" transform="translate(-989.665 -531.278)"/>
        </g>
        <g id="Group_90" data-name="Group 90" transform="translate(59.914 92.165)">
          <path id="Path_52-5" data-name="Path 52-5" d="M1044.162,494.557c-3.886,1.053-6.862,3.9-7.276,7.052s1.805,6.429,5.439,7.921a12.821,12.821,0,0,0,11.508-1.071,8.2,8.2,0,0,0,2.92-9.787,6.362,6.362,0,0,0-1.8-2.7c-2.777-2.348-7.671-1.855-11.711-1.171" transform="translate(-1036.837 -494.238)"/>
        </g>
        <g id="Group_89" data-name="Group 89" transform="translate(13.392 55.754)">
          <path id="Path_52-6" data-name="Path 52-6" d="M997.64,458.146c-3.886,1.053-6.862,3.9-7.276,7.052s1.8,6.429,5.439,7.921a12.821,12.821,0,0,0,11.508-1.071,8.2,8.2,0,0,0,2.92-9.787,6.361,6.361,0,0,0-1.8-2.7c-2.777-2.348-7.671-1.855-11.711-1.171" transform="translate(-990.315 -457.827)"/>
        </g>
        <g id="Group_88" data-name="Group 88" transform="translate(43.044 114.224)">
          <path id="Path_52-7" data-name="Path 52-7" d="M1027.292,516.616c-3.886,1.053-6.862,3.9-7.276,7.052s1.8,6.429,5.439,7.921a12.821,12.821,0,0,0,11.508-1.071,8.2,8.2,0,0,0,2.92-9.787,6.362,6.362,0,0,0-1.8-2.7c-2.777-2.348-7.671-1.855-11.711-1.171" transform="translate(-1019.967 -516.297)"/>
        </g>
      </g>
      <g id="Group_37" data-name="Group 37" transform="translate(951.793 641.673)">
        <g transform="matrix(1, 0, 0, 1, -143.79, -9.67)" filter="url(#Path_31)">
          <path id="Path_31-2-2" data-name="Path 31" d="M986.445,357.7l-9.7-4.818-13.624-13.42-10.31-4.292" transform="translate(-790.51 -323)" fill="none" stroke="#000" stroke-linecap="round" stroke-linejoin="round" stroke-width="1"/>
        </g>
        <path id="Path_34" data-name="Path 34" d="M985.857,363.791c-31.218-.46-2.508-13.517,4.4-12.157S1017.075,364.251,985.857,363.791Z" transform="translate(-934.308 -332.671)" stroke="#707070" stroke-width="1"/>
        <g transform="matrix(1, 0, 0, 1, -143.79, -9.67)" filter="url(#Path_29)">
          <path id="Path_29-2" data-name="Path 29" d="M980.612,358.945c24.374,0,51.188,12.981,51.188,40.527,0,16.113-15.267,16.382-27.8,20.567-10.709,4.625-9.6,4.651-23.392,5.818-13.114,0-13.06-2.1-25.073-5.818-7.4-4.79-21.227-7.841-21.227-20.567C934.311,371.926,956.237,358.945,980.612,358.945Z" transform="translate(-790.51 -323)" fill="#2b2929"/>
        </g>
        <g transform="matrix(1, 0, 0, 1, -143.79, -9.67)" filter="url(#Path_31-2)">
          <path id="Path_31-2-3" data-name="Path 31-2" d="M1024.922,332.671l-13.865,5.854-6.127,10.818-10.481,9.978" transform="translate(-790.51 -323)" fill="rgba(0,0,0,0)" stroke="#000" stroke-linecap="round" stroke-linejoin="round" stroke-width="1"/>
        </g>
      </g>
    </g>
  </g>
</svg>
