<svg xmlns="http://www.w3.org/2000/svg" xmlns:xlink="http://www.w3.org/1999/xlink" width="140.372" height="198.202" viewBox="0 0 140.372 198.202">
  <defs>
    <filter id="Path_528" x="0" y="0" width="140.372" height="198.202" filterUnits="userSpaceOnUse">
      <feOffset dx="5" dy="-5" input="SourceAlpha"/>
      <feGaussianBlur stdDeviation="8" result="blur"/>
      <feFlood flood-opacity="0.886"/>
      <feComposite operator="in" in2="blur"/>
      <feComposite in="SourceGraphic"/>
    </filter>
  </defs>
  <g id="landingLadyR" transform="translate(19 29)">
    <g transform="matrix(1, 0, 0, 1, -19, -29)" filter="url(#Path_528)">
      <path id="Path_528-2" data-name="Path 528" d="M985.214,547.815c2.356,2.444,4.625,4.794,8.266,4.421,19.837-3.341,38.567-11.019,52.337-21.5s22.582-23.776,22.582-38.343c0-17.28,5.57-43.508-11.073-61.768-16.536-18.147-55-28.421-80.4-28.552V542.848C980.623,543.048,982.958,545.473,985.214,547.815Z" transform="translate(-957.92 -373.07)" fill="#0743e5"/>
    </g>
    <g id="Group_96" data-name="Group 96" transform="translate(33.409 30.669)">
      <path id="Path_52" data-name="Path 52" d="M1017.657,433.061c-3.886,1.053-6.862,3.9-7.276,7.052s1.8,6.429,5.439,7.921a12.821,12.821,0,0,0,11.508-1.071,8.2,8.2,0,0,0,2.92-9.787,6.362,6.362,0,0,0-1.8-2.7c-2.777-2.348-7.671-1.855-11.711-1.171" transform="translate(-1010.332 -432.742)"/>
    </g>
    <g id="Group_97" data-name="Group 97" transform="translate(64.346 59.396)">
      <path id="Path_52-2" data-name="Path 52-2" d="M1048.594,461.788c-3.886,1.053-6.862,3.9-7.276,7.052s1.805,6.429,5.439,7.921a12.821,12.821,0,0,0,11.508-1.071,8.2,8.2,0,0,0,2.92-9.787,6.361,6.361,0,0,0-1.8-2.7c-2.777-2.348-7.671-1.855-11.711-1.171" transform="translate(-1041.269 -461.469)"/>
    </g>
    <g id="Group_92" data-name="Group 92" transform="translate(17.493 87.187)">
      <path id="Path_52-3" data-name="Path 52-3" d="M1001.741,489.579c-3.886,1.053-6.862,3.9-7.276,7.052s1.8,6.429,5.439,7.921a12.821,12.821,0,0,0,11.508-1.071,8.2,8.2,0,0,0,2.92-9.787,6.36,6.36,0,0,0-1.8-2.7c-2.777-2.348-7.671-1.855-11.711-1.171" transform="translate(-994.416 -489.26)"/>
    </g>
    <g id="Group_91" data-name="Group 91" transform="translate(12.742 129.205)">
      <path id="Path_52-4" data-name="Path 52-4" d="M996.99,531.6c-3.886,1.053-6.862,3.9-7.276,7.052s1.8,6.429,5.439,7.921a12.821,12.821,0,0,0,11.508-1.071,8.2,8.2,0,0,0,2.92-9.787,6.36,6.36,0,0,0-1.8-2.7c-2.777-2.348-7.671-1.855-11.711-1.171" transform="translate(-989.665 -531.278)"/>
    </g>
    <g id="Group_90" data-name="Group 90" transform="translate(59.914 92.165)">
      <path id="Path_52-5" data-name="Path 52-5" d="M1044.162,494.557c-3.886,1.053-6.862,3.9-7.276,7.052s1.805,6.429,5.439,7.921a12.821,12.821,0,0,0,11.508-1.071,8.2,8.2,0,0,0,2.92-9.787,6.362,6.362,0,0,0-1.8-2.7c-2.777-2.348-7.671-1.855-11.711-1.171" transform="translate(-1036.837 -494.238)"/>
    </g>
    <g id="Group_89" data-name="Group 89" transform="translate(13.392 55.754)">
      <path id="Path_52-6" data-name="Path 52-6" d="M997.64,458.146c-3.886,1.053-6.862,3.9-7.276,7.052s1.8,6.429,5.439,7.921a12.821,12.821,0,0,0,11.508-1.071,8.2,8.2,0,0,0,2.92-9.787,6.361,6.361,0,0,0-1.8-2.7c-2.777-2.348-7.671-1.855-11.711-1.171" transform="translate(-990.315 -457.827)"/>
    </g>
    <g id="Group_88" data-name="Group 88" transform="translate(43.044 114.224)">
      <path id="Path_52-7" data-name="Path 52-7" d="M1027.292,516.616c-3.886,1.053-6.862,3.9-7.276,7.052s1.8,6.429,5.439,7.921a12.821,12.821,0,0,0,11.508-1.071,8.2,8.2,0,0,0,2.92-9.787,6.362,6.362,0,0,0-1.8-2.7c-2.777-2.348-7.671-1.855-11.711-1.171" transform="translate(-1019.967 -516.297)"/>
    </g>
  </g>
</svg>
