<svg xmlns="http://www.w3.org/2000/svg" xmlns:xlink="http://www.w3.org/1999/xlink" width="140.673" height="198.258" viewBox="0 0 140.673 198.258">
  <defs>
    <filter id="Path_529" x="0" y="0" width="140.673" height="198.258" filterUnits="userSpaceOnUse">
      <feOffset dx="5" dy="-3" input="SourceAlpha"/>
      <feGaussianBlur stdDeviation="8" result="blur"/>
      <feFlood flood-opacity="0.89"/>
      <feComposite operator="in" in2="blur"/>
      <feComposite in="SourceGraphic"/>
    </filter>
  </defs>
  <g id="landingLadyL" transform="translate(19 27)">
    <g transform="matrix(1, 0, 0, 1, -19, -27)" filter="url(#Path_529)">
      <path id="Path_529-2" data-name="Path 529" d="M976.673,401.344c-25.4.04-58.723,10.384-75.409,28.67s-16.729,44.514-16.77,61.795c-.036,14.966,7.652,28.441,20.5,38.906s30.849,17.916,51.445,20.83c3.219.456,6.492-1.9,9.812-4.371s6.686-5.056,10.088-5.062c.168,0,.331.006.494.014l.334-140.782Z" transform="translate(-865.49 -374.34)" fill="#0743e5"/>
    </g>
    <g id="Group_93" data-name="Group 93" transform="translate(64.522 90.811)">
      <path id="Path_52-8" data-name="Path 52-8" d="M949.453,498.052c-1.176,3.035.072,6.561,3.143,8.671A13.332,13.332,0,0,0,964.13,508c3.706-1.383,6.1-4.641,5.636-7.787-.513-3.5-4.267-6.372-8.581-7.57a11.179,11.179,0,0,0-3.89-.468c-4.11.346-6.463,3.68-8.114,6.6" transform="translate(-949.016 -492.155)"/>
    </g>
    <g id="Group_94" data-name="Group 94" transform="translate(64.522 59.227)">
      <path id="Path_52-9" data-name="Path 52-9" d="M949.453,466.468c-1.176,3.035.072,6.561,3.143,8.671a13.332,13.332,0,0,0,11.534,1.275c3.706-1.383,6.1-4.641,5.636-7.787-.513-3.5-4.267-6.372-8.581-7.57a11.18,11.18,0,0,0-3.89-.468c-4.11.346-6.463,3.68-8.114,6.6" transform="translate(-949.016 -460.571)"/>
    </g>
    <g id="Group_87" data-name="Group 87" transform="translate(53.612 126.852)">
      <path id="Path_52-10" data-name="Path 52-10" d="M938.543,534.093c-1.176,3.035.072,6.561,3.143,8.671a13.332,13.332,0,0,0,11.534,1.275c3.706-1.383,6.1-4.641,5.636-7.787-.513-3.5-4.267-6.372-8.581-7.57a11.179,11.179,0,0,0-3.89-.468c-4.11.346-6.463,3.68-8.114,6.6" transform="translate(-938.106 -528.196)"/>
    </g>
    <g id="Group_86" data-name="Group 86" transform="translate(28.304 46.431)">
      <path id="Path_52-11" data-name="Path 52-11" d="M913.235,453.672c-1.176,3.035.072,6.561,3.143,8.671a13.332,13.332,0,0,0,11.534,1.275c3.706-1.383,6.1-4.641,5.636-7.787-.513-3.5-4.267-6.372-8.581-7.57a11.18,11.18,0,0,0-3.89-.468c-4.11.346-6.463,3.68-8.114,6.6" transform="translate(-912.798 -447.775)"/>
    </g>
    <g id="Group_47" data-name="Group 47" transform="translate(53.323 28.99)">
      <path id="Path_104" data-name="Path 104" d="M938.672,436.773a16.581,16.581,0,0,0,1.013,5.724,7.882,7.882,0,0,0,4.646,4.357,17.633,17.633,0,0,0,6.079.573c2.135-.048,4.419-.131,6.139-1.108,2.447-1.387,2.877-4.062,2.619-6.389-.461-4.166-3.355-8.811-8.717-9.523a11.876,11.876,0,0,0-8.006,1.988,13.994,13.994,0,0,0-4.628,5.582" transform="translate(-937.817 -430.334)"/>
    </g>
    <g id="Group_95" data-name="Group 95" transform="translate(15.018 71.585)">
      <path id="Path_52-12" data-name="Path 52-12" d="M899.9,478.94c-1.107,3.051.221,6.559,3.34,8.627a13.37,13.37,0,0,0,11.56,1.12c3.675-1.432,5.989-4.722,5.457-7.861-.592-3.495-4.411-6.314-8.751-7.454a11.248,11.248,0,0,0-3.9-.416c-4.1.4-6.377,3.766-7.963,6.7" transform="translate(-899.512 -472.929)"/>
    </g>
    <g id="Group_42" data-name="Group 42" transform="translate(22.397 103.73)">
      <path id="Path_52-13" data-name="Path 52-13" d="M907.276,511.085c-1.107,3.051.221,6.559,3.34,8.627a13.37,13.37,0,0,0,11.56,1.12c3.675-1.432,5.989-4.722,5.457-7.861-.592-3.495-4.411-6.314-8.751-7.454a11.248,11.248,0,0,0-3.9-.416c-4.1.4-6.377,3.766-7.963,6.7" transform="translate(-906.891 -505.074)"/>
    </g>
  </g>
</svg>
