<svg xmlns="http://www.w3.org/2000/svg" width="173.098" height="130.581" viewBox="0 0 173.098 130.581">
  <path id="Path_28" data-name="Path 28" d="M977.813,535.246c-23.423-.94-58.668-11.155-72.962-27.353s-7.642-38.378-6.644-53.126c.842-12.432,9.735-23.451,23.044-31.891s31.024-14.3,49.513-16.421c3.381-.184,5.255-1.881,7.286.291s4.763.192,8.44.34c3.138.125,4.931-.432,9.632.384s5.759-.163,8.7.352c18.833,3.276,35.023,10.324,46.288,19.747s17.607,21.214,16.741,33.987c-1,14.75-2.5,37.134-18.9,52.107S1001.236,536.184,977.813,535.246Z" transform="translate(-895.34 -405.253)" stroke="#3c3007" stroke-miterlimit="4.001" stroke-width="1"/>
</svg>
