<svg xmlns="http://www.w3.org/2000/svg" xmlns:xlink="http://www.w3.org/1999/xlink" width="1920" height="1080" viewBox="0 0 1920 1080">
  <defs>
    <filter id="Ellipse_13" x="644.686" y="241.768" width="63.214" height="61.843" filterUnits="userSpaceOnUse">
      <feOffset dy="3" input="SourceAlpha"/>
      <feGaussianBlur stdDeviation="3" result="blur"/>
      <feFlood flood-opacity="0.624"/>
      <feComposite operator="in" in2="blur"/>
      <feComposite in="SourceGraphic"/>
    </filter>
    <filter id="Path_1" x="650.806" y="231.446" width="40.795" height="39.04" filterUnits="userSpaceOnUse">
      <feOffset dy="3" input="SourceAlpha"/>
      <feGaussianBlur stdDeviation="3" result="blur-2"/>
      <feFlood flood-opacity="0.624"/>
      <feComposite operator="in" in2="blur-2"/>
      <feComposite in="SourceGraphic"/>
    </filter>
    <filter id="Path_2" x="673.326" y="234.056" width="44.404" height="44.387" filterUnits="userSpaceOnUse">
      <feOffset dy="3" input="SourceAlpha"/>
      <feGaussianBlur stdDeviation="3" result="blur-3"/>
      <feFlood flood-opacity="0.624"/>
      <feComposite operator="in" in2="blur-3"/>
      <feComposite in="SourceGraphic"/>
    </filter>
    <filter id="Path_3" x="681.362" y="257.711" width="40.683" height="39.888" filterUnits="userSpaceOnUse">
      <feOffset dy="3" input="SourceAlpha"/>
      <feGaussianBlur stdDeviation="3" result="blur-4"/>
      <feFlood flood-opacity="0.624"/>
      <feComposite operator="in" in2="blur-4"/>
      <feComposite in="SourceGraphic"/>
    </filter>
    <filter id="Path_6" x="637.512" y="269.024" width="44.511" height="44.5" filterUnits="userSpaceOnUse">
      <feOffset dy="3" input="SourceAlpha"/>
      <feGaussianBlur stdDeviation="3" result="blur-5"/>
      <feFlood flood-opacity="0.624"/>
      <feComposite operator="in" in2="blur-5"/>
      <feComposite in="SourceGraphic"/>
    </filter>
    <filter id="Path_7" x="634.346" y="246.862" width="37.583" height="40.047" filterUnits="userSpaceOnUse">
      <feOffset dy="3" input="SourceAlpha"/>
      <feGaussianBlur stdDeviation="3" result="blur-6"/>
      <feFlood flood-opacity="0.624"/>
      <feComposite operator="in" in2="blur-6"/>
      <feComposite in="SourceGraphic"/>
    </filter>
    <filter id="Path_21" x="663.709" y="272.451" width="43.989" height="44.407" filterUnits="userSpaceOnUse">
      <feOffset dy="3" input="SourceAlpha"/>
      <feGaussianBlur stdDeviation="3" result="blur-7"/>
      <feFlood flood-opacity="0.624"/>
      <feComposite operator="in" in2="blur-7"/>
      <feComposite in="SourceGraphic"/>
    </filter>
    <filter id="Path_16" x="493" y="101.147" width="49.109" height="59.705" filterUnits="userSpaceOnUse">
      <feOffset dy="3" input="SourceAlpha"/>
      <feGaussianBlur stdDeviation="3" result="blur-8"/>
      <feFlood flood-opacity="0.627"/>
      <feComposite operator="in" in2="blur-8"/>
      <feComposite in="SourceGraphic"/>
    </filter>
    <filter id="Path_17" x="446.906" y="101.636" width="53.298" height="62.728" filterUnits="userSpaceOnUse">
      <feOffset dy="3" input="SourceAlpha"/>
      <feGaussianBlur stdDeviation="3" result="blur-9"/>
      <feFlood flood-opacity="0.627"/>
      <feComposite operator="in" in2="blur-9"/>
      <feComposite in="SourceGraphic"/>
    </filter>
    <filter id="Path_18" x="464.917" y="88.376" width="61.276" height="51.249" filterUnits="userSpaceOnUse">
      <feOffset dy="3" input="SourceAlpha"/>
      <feGaussianBlur stdDeviation="3" result="blur-10"/>
      <feFlood flood-opacity="0.627"/>
      <feComposite operator="in" in2="blur-10"/>
      <feComposite in="SourceGraphic"/>
    </filter>
    <filter id="Path_19" x="463.962" y="122.02" width="63.185" height="53.96" filterUnits="userSpaceOnUse">
      <feOffset dy="3" input="SourceAlpha"/>
      <feGaussianBlur stdDeviation="3" result="blur-11"/>
      <feFlood flood-opacity="0.627"/>
      <feComposite operator="in" in2="blur-11"/>
      <feComposite in="SourceGraphic"/>
    </filter>
    <filter id="Ellipse_4" x="474" y="109" width="43" height="42" filterUnits="userSpaceOnUse">
      <feOffset dy="3" input="SourceAlpha"/>
      <feGaussianBlur stdDeviation="3" result="blur-12"/>
      <feFlood flood-opacity="0.627"/>
      <feComposite operator="in" in2="blur-12"/>
      <feComposite in="SourceGraphic"/>
    </filter>
    <filter id="Path_16-2" x="621.777" y="73.892" width="76.158" height="63.217" filterUnits="userSpaceOnUse">
      <feOffset dy="3" input="SourceAlpha"/>
      <feGaussianBlur stdDeviation="3" result="blur-13"/>
      <feFlood flood-opacity="0.616"/>
      <feComposite operator="in" in2="blur-13"/>
      <feComposite in="SourceGraphic"/>
    </filter>
    <filter id="Path_17-2" x="583.164" y="74.367" width="75.749" height="65.652" filterUnits="userSpaceOnUse">
      <feOffset dy="3" input="SourceAlpha"/>
      <feGaussianBlur stdDeviation="3" result="blur-14"/>
      <feFlood flood-opacity="0.161"/>
      <feComposite operator="in" in2="blur-14"/>
      <feComposite in="SourceGraphic"/>
    </filter>
    <filter id="Path_18-2" x="608.387" y="54.754" width="64.033" height="69.374" filterUnits="userSpaceOnUse">
      <feOffset dy="3" input="SourceAlpha"/>
      <feGaussianBlur stdDeviation="3" result="blur-15"/>
      <feFlood flood-opacity="0.616"/>
      <feComposite operator="in" in2="blur-15"/>
      <feComposite in="SourceGraphic"/>
    </filter>
    <filter id="Path_19-2" x="607.576" y="87.104" width="65.916" height="75.966" filterUnits="userSpaceOnUse">
      <feOffset dy="3" input="SourceAlpha"/>
      <feGaussianBlur stdDeviation="3" result="blur-16"/>
      <feFlood flood-opacity="0.616"/>
      <feComposite operator="in" in2="blur-16"/>
      <feComposite in="SourceGraphic"/>
    </filter>
    <filter id="Ellipse_4-2" x="612" y="80" width="57" height="54" filterUnits="userSpaceOnUse">
      <feOffset dy="3" input="SourceAlpha"/>
      <feGaussianBlur stdDeviation="3" result="blur-17"/>
      <feFlood flood-opacity="0.616"/>
      <feComposite operator="in" in2="blur-17"/>
      <feComposite in="SourceGraphic"/>
    </filter>
    <filter id="Ellipse_10" x="495.908" y="277.52" width="77.711" height="78.029" filterUnits="userSpaceOnUse">
      <feOffset dy="3" input="SourceAlpha"/>
      <feGaussianBlur stdDeviation="8.5" result="blur-18"/>
      <feFlood flood-opacity="0.369"/>
      <feComposite operator="in" in2="blur-18"/>
      <feComposite in="SourceGraphic"/>
    </filter>
    <filter id="Path_8" x="516.961" y="279.075" width="39.102" height="37.795" filterUnits="userSpaceOnUse">
      <feOffset dy="3" input="SourceAlpha"/>
      <feGaussianBlur stdDeviation="3" result="blur-19"/>
      <feFlood flood-opacity="0.369"/>
      <feComposite operator="in" in2="blur-19"/>
      <feComposite in="SourceGraphic"/>
    </filter>
    <filter id="Path_10" x="536.293" y="288.972" width="36.177" height="39.678" filterUnits="userSpaceOnUse">
      <feOffset dy="3" input="SourceAlpha"/>
      <feGaussianBlur stdDeviation="3" result="blur-20"/>
      <feFlood flood-opacity="0.369"/>
      <feComposite operator="in" in2="blur-20"/>
      <feComposite in="SourceGraphic"/>
    </filter>
    <filter id="Path_11" x="512.309" y="318.82" width="37.754" height="33.554" filterUnits="userSpaceOnUse">
      <feOffset dy="3" input="SourceAlpha"/>
      <feGaussianBlur stdDeviation="3" result="blur-21"/>
      <feFlood flood-opacity="0.369"/>
      <feComposite operator="in" in2="blur-21"/>
      <feComposite in="SourceGraphic"/>
    </filter>
    <filter id="Path_12" x="498.685" y="304.449" width="38.426" height="40.261" filterUnits="userSpaceOnUse">
      <feOffset dy="3" input="SourceAlpha"/>
      <feGaussianBlur stdDeviation="3" result="blur-22"/>
      <feFlood flood-opacity="0.369"/>
      <feComposite operator="in" in2="blur-22"/>
      <feComposite in="SourceGraphic"/>
    </filter>
    <filter id="Path_13" x="527.73" y="305.604" width="41.998" height="43.557" filterUnits="userSpaceOnUse">
      <feOffset dy="3" input="SourceAlpha"/>
      <feGaussianBlur stdDeviation="3" result="blur-23"/>
      <feFlood flood-opacity="0.369"/>
      <feComposite operator="in" in2="blur-23"/>
      <feComposite in="SourceGraphic"/>
    </filter>
    <filter id="Path_20" x="496.75" y="286.056" width="41.524" height="41.833" filterUnits="userSpaceOnUse">
      <feOffset dy="3" input="SourceAlpha"/>
      <feGaussianBlur stdDeviation="3" result="blur-24"/>
      <feFlood flood-opacity="0.369"/>
      <feComposite operator="in" in2="blur-24"/>
      <feComposite in="SourceGraphic"/>
    </filter>
    <filter id="Ellipse_1" x="370.5" y="185.5" width="168" height="172" filterUnits="userSpaceOnUse">
      <feOffset dx="8" dy="16" input="SourceAlpha"/>
      <feGaussianBlur stdDeviation="8.5" result="blur-25"/>
      <feFlood flood-opacity="0.612"/>
      <feComposite operator="in" in2="blur-25"/>
      <feComposite in="SourceGraphic"/>
    </filter>
    <filter id="Ellipse_1-2" x="517.5" y="147.5" width="166" height="172" filterUnits="userSpaceOnUse">
      <feOffset dx="15" dy="10" input="SourceAlpha"/>
      <feGaussianBlur stdDeviation="8.5" result="blur-26"/>
      <feFlood flood-opacity="0.608"/>
      <feComposite operator="in" in2="blur-26"/>
      <feComposite in="SourceGraphic"/>
    </filter>
    <filter id="Ellipse_10-2" x="604.07" y="313.069" width="45" height="43" filterUnits="userSpaceOnUse">
      <feOffset dy="3" input="SourceAlpha"/>
      <feGaussianBlur stdDeviation="3" result="blur-27"/>
      <feFlood flood-opacity="0.608"/>
      <feComposite operator="in" in2="blur-27"/>
      <feComposite in="SourceGraphic"/>
    </filter>
    <filter id="Path_8-2" x="620.821" y="296.1" width="53.619" height="52.939" filterUnits="userSpaceOnUse">
      <feOffset dy="3" input="SourceAlpha"/>
      <feGaussianBlur stdDeviation="3" result="blur-28"/>
      <feFlood flood-opacity="0.608"/>
      <feComposite operator="in" in2="blur-28"/>
      <feComposite in="SourceGraphic"/>
    </filter>
    <filter id="Path_9" x="601.516" y="289" width="46.108" height="43.069" filterUnits="userSpaceOnUse">
      <feOffset dy="3" input="SourceAlpha"/>
      <feGaussianBlur stdDeviation="3" result="blur-29"/>
      <feFlood flood-opacity="0.608"/>
      <feComposite operator="in" in2="blur-29"/>
      <feComposite in="SourceGraphic"/>
    </filter>
    <filter id="Path_10-2" x="621.254" y="321.6" width="52.753" height="51.938" filterUnits="userSpaceOnUse">
      <feOffset dy="3" input="SourceAlpha"/>
      <feGaussianBlur stdDeviation="3" result="blur-30"/>
      <feFlood flood-opacity="0.608"/>
      <feComposite operator="in" in2="blur-30"/>
      <feComposite in="SourceGraphic"/>
    </filter>
    <filter id="Path_11-2" x="577.274" y="320.429" width="54.713" height="54.279" filterUnits="userSpaceOnUse">
      <feOffset dy="3" input="SourceAlpha"/>
      <feGaussianBlur stdDeviation="3" result="blur-31"/>
      <feFlood flood-opacity="0.608"/>
      <feComposite operator="in" in2="blur-31"/>
      <feComposite in="SourceGraphic"/>
    </filter>
    <filter id="Path_12-2" x="577" y="295.03" width="55.261" height="55.079" filterUnits="userSpaceOnUse">
      <feOffset dy="3" input="SourceAlpha"/>
      <feGaussianBlur stdDeviation="3" result="blur-32"/>
      <feFlood flood-opacity="0.608"/>
      <feComposite operator="in" in2="blur-32"/>
      <feComposite in="SourceGraphic"/>
    </filter>
    <filter id="Path_13-2" x="601.573" y="337.787" width="44.115" height="45.565" filterUnits="userSpaceOnUse">
      <feOffset dy="3" input="SourceAlpha"/>
      <feGaussianBlur stdDeviation="3" result="blur-33"/>
      <feFlood flood-opacity="0.161"/>
      <feComposite operator="in" in2="blur-33"/>
      <feComposite in="SourceGraphic"/>
    </filter>
    <filter id="Ellipse_1-3" x="660.053" y="101.5" width="166" height="172" filterUnits="userSpaceOnUse">
      <feOffset dx="15" dy="10" input="SourceAlpha"/>
      <feGaussianBlur stdDeviation="8.5" result="blur-34"/>
      <feFlood flood-opacity="0.608"/>
      <feComposite operator="in" in2="blur-34"/>
      <feComposite in="SourceGraphic"/>
    </filter>
    <clipPath id="clip-Web_1920_1">
      <rect width="1920" height="1080"/>
    </clipPath>
  </defs>
  <g id="Web_1920_1" data-name="Web 1920 – 1" clip-path="url(#clip-Web_1920_1)">
    <rect width="1920" height="1080" fill="#92bebf"/>
    <g id="Component_5_1" data-name="Component 5 – 1" transform="translate(634.89 230.412)">
      <g id="Group_4" data-name="Group 4" transform="translate(-932.809 -229.089) rotate(-16)">
        <g transform="matrix(0.96, 0.28, -0.28, 0.96, 286.74, 80.85)" filter="url(#Ellipse_13)">
          <ellipse id="Ellipse_13-2" data-name="Ellipse 13" cx="18.5" cy="17.5" rx="18.5" ry="17.5" transform="translate(653.69 257.97) rotate(-16)" fill="#005b64"/>
        </g>
        <g transform="matrix(0.96, 0.28, -0.28, 0.96, 286.74, 80.85)" filter="url(#Path_1)">
          <path id="Path_1-2" data-name="Path 1" d="M9.594-1.309,19,15.131,9.594,6.614,0,15.131Z" transform="translate(660.17 243.94) rotate(-16)" fill="#fff"/>
        </g>
        <g transform="matrix(0.96, 0.28, -0.28, 0.96, 286.74, 80.85)" filter="url(#Path_2)">
          <path id="Path_2-2" data-name="Path 2" d="M9.594-1.309,19,17.026,8.221,7.924,0,17.026Z" transform="translate(694.15 241) rotate(44)" fill="#fff"/>
        </g>
        <g transform="matrix(0.96, 0.28, -0.28, 0.96, 286.74, 80.85)" filter="url(#Path_3)">
          <path id="Path_3-2" data-name="Path 3" d="M9.594-1.309,19,18.648,8.973,9.381,0,18.648Z" transform="matrix(-0.16, 0.99, -0.99, -0.16, 711.75, 266.63)" fill="#fff"/>
        </g>
        <g transform="matrix(0.96, 0.28, -0.28, 0.96, 286.74, 80.85)" filter="url(#Path_6)">
          <path id="Path_6-2" data-name="Path 6" d="M9.594-1.309,19,17.643,9.792,8.258,0,17.643Z" transform="matrix(-0.81, -0.59, 0.59, -0.81, 662.65, 300.47)" fill="#fff"/>
        </g>
        <g transform="matrix(0.96, 0.28, -0.28, 0.96, 286.74, 80.85)" filter="url(#Path_7)">
          <path id="Path_7-2" data-name="Path 7" d="M9.594-1.309,19,14.4,8.75,8.129,0,14.4Z" transform="matrix(0.22, -0.97, 0.97, 0.22, 644.62, 271.67)" fill="#fff"/>
        </g>
        <g transform="matrix(0.96, 0.28, -0.28, 0.96, 286.74, 80.85)" filter="url(#Path_21)">
          <path id="Path_21-2" data-name="Path 21" d="M9.594-1.309,19,18.648,8.973,9.381,0,18.648Z" transform="matrix(-0.89, 0.45, -0.45, -0.89, 698.1, 295.07)" fill="#fff"/>
        </g>
      </g>
    </g>
    <g id="Component_7_1" data-name="Component 7 – 1" transform="translate(455.906 94.376)">
      <path id="Path_14" data-name="Path 14" d="M15,0c8.284,0,19.734-20.41,15,15S23.284,30,15,30A15,15,0,0,1,15,0Z" transform="translate(46.094 18.624)" fill="#fff"/>
      <g transform="matrix(1, 0, 0, 1, -455.91, -94.38)" filter="url(#Path_16)">
        <path id="Path_16-3" data-name="Path 16" d="M15,0c8.284,0,19.734-20.41,15,15S23.284,30,15,30A15,15,0,0,1,15,0Z" transform="translate(502 113)" fill="#ff12c8"/>
      </g>
      <g transform="matrix(1, 0, 0, 1, -455.91, -94.38)" filter="url(#Path_17)">
        <path id="Path_17-3" data-name="Path 17" d="M15,0c8.284,0,19.734-20.41,15,15S23.284,30,15,30A15,15,0,0,1,15,0Z" transform="matrix(-0.99, 0.1, -0.1, -0.99, 490.59, 143.29)" fill="#ff12c8"/>
      </g>
      <g transform="matrix(1, 0, 0, 1, -455.91, -94.38)" filter="url(#Path_18)">
        <path id="Path_18-3" data-name="Path 18" d="M15,0c8.284,0,19.734-20.41,15,15S23.284,30,15,30A15,15,0,0,1,15,0Z" transform="matrix(-0.05, -1, 1, -0.05, 481.39, 127.32)" fill="#ff12c8"/>
      </g>
      <g transform="matrix(1, 0, 0, 1, -455.91, -94.38)" filter="url(#Path_19)">
        <path id="Path_19-3" data-name="Path 19" d="M15,0c8.284,0,19.734-20.41,15,15S23.284,30,15,30A15,15,0,0,1,15,0Z" transform="translate(508.55 128.73) rotate(83)" fill="#ff12c8"/>
      </g>
      <g transform="matrix(1, 0, 0, 1, -455.91, -94.38)" filter="url(#Ellipse_4)">
        <ellipse id="Ellipse_4-3" data-name="Ellipse 4" cx="12.5" cy="12" rx="12.5" ry="12" transform="translate(483 115)" fill="#707070"/>
      </g>
    </g>
    <g id="Component_3_1" data-name="Component 3 – 1" transform="translate(592.164 60.754)">
      <g transform="matrix(1, 0, 0, 1, -592.16, -60.75)" filter="url(#Path_16-2)">
        <path id="Path_16-4" data-name="Path 16" d="M15.283-.63c8.44,0,42.03-15.278,37.206,16.322s-28.766,10.45-37.206,10.45S0,20.149,0,12.756,6.842-.63,15.283-.63Z" transform="translate(631.45 92.45) rotate(-9)" fill="#707070"/>
      </g>
      <g transform="matrix(1, 0, 0, 1, -592.16, -60.75)" filter="url(#Path_17-2)">
        <path id="Path_17-4" data-name="Path 17" d="M15,5.853c8.284,0,42.915-14.821,38.181,20.59s-29.9,9.41-38.181,9.41a15,15,0,0,1,0-30Z" transform="matrix(-0.99, 0.1, -0.1, -0.99, 650.2, 125.17)" fill="#fff"/>
      </g>
      <g transform="matrix(1, 0, 0, 1, -592.16, -60.75)" filter="url(#Path_18-2)">
        <path id="Path_18-4" data-name="Path 18" d="M15,5.853c8.284,0,37.107-16.266,32.372,19.145S23.284,35.853,15,35.853a15,15,0,0,1,0-30Z" transform="matrix(-0.09, -1, 1, -0.09, 619.45, 112.31)" fill="#fff"/>
      </g>
      <g transform="matrix(1, 0, 0, 1, -592.16, -60.75)" filter="url(#Path_19-2)">
        <path id="Path_19-4" data-name="Path 19" d="M15,5.853c8.284,0,42.565-19.138,37.831,16.272S23.284,35.853,15,35.853a15,15,0,0,1,0-30Z" transform="translate(658.68 93.02) rotate(83)" fill="#fff"/>
      </g>
      <g transform="matrix(1, 0, 0, 1, -592.16, -60.75)" filter="url(#Ellipse_4-2)">
        <ellipse id="Ellipse_4-4" data-name="Ellipse 4" cx="19.5" cy="18" rx="19.5" ry="18" transform="translate(621 86)" fill="#c6ff00"/>
      </g>
    </g>
    <g id="Component_2_1" data-name="Component 2 – 1" transform="matrix(0.53, -0.848, 0.848, 0.53, 494.771, 323.625)">
      <g transform="matrix(0.53, 0.85, -0.85, 0.53, 12.26, -591.08)" filter="url(#Ellipse_10)">
        <ellipse id="Ellipse_10-3" data-name="Ellipse 10" cx="10" cy="9.5" rx="10" ry="9.5" transform="matrix(0.53, -0.85, 0.85, 0.53, 521.41, 316.98)" fill="#005b64"/>
      </g>
      <g transform="matrix(0.53, 0.85, -0.85, 0.53, 12.26, -591.08)" filter="url(#Path_8)">
        <path id="Path_8-3" data-name="Path 8" d="M7.95.224c4.391,0,7.274-2.419,7.95,8.659s-3.559,8.659-7.95,8.659S0,13.666,0,8.883,3.559.224,7.95.224Z" transform="translate(525.96 300.57) rotate(-76)" fill="#c6ff00"/>
      </g>
      <g transform="matrix(0.53, 0.85, -0.85, 0.53, 12.26, -591.08)" filter="url(#Path_10)">
        <path id="Path_10-3" data-name="Path 10" d="M7.759.248c4.285,0,7.1-2.683,7.759,9.6s-3.474,9.6-7.759,9.6S0,15.153,0,9.85,3.474.248,7.759.248Z" transform="translate(545.29 297.14) rotate(-8)" fill="#c6ff00"/>
      </g>
      <g transform="matrix(0.53, 0.85, -0.85, 0.53, 12.26, -591.08)" filter="url(#Path_11)">
        <path id="Path_11-3" data-name="Path 11" d="M7.574.245c4.183,0,6.93-2.654,7.574,9.5s-3.391,9.5-7.574,9.5S0,14.993,0,9.746,3.391.245,7.574.245Z" transform="matrix(0.02, 1, -1, 0.02, 540.8, 324.82)" fill="#c6ff00"/>
      </g>
      <g transform="matrix(0.53, 0.85, -0.85, 0.53, 12.26, -591.08)" filter="url(#Path_12)">
        <path id="Path_12-3" data-name="Path 12" d="M7.72.231c4.263,0,7.063-2.5,7.72,8.953s-3.456,8.953-7.72,8.953S0,14.129,0,9.184,3.456.231,7.72.231Z" transform="translate(528.11 327.92) rotate(162)" fill="#c6ff00"/>
      </g>
      <g transform="matrix(0.53, 0.85, -0.85, 0.53, 12.26, -591.08)" filter="url(#Path_13)">
        <path id="Path_13-3" data-name="Path 13" d="M7.854.256c4.338,0,7.186-2.769,7.854,9.911s-3.516,9.911-7.854,9.911S0,15.641,0,10.167,3.516.256,7.854.256Z" transform="translate(547.2 311.6) rotate(31)" fill="#c6ff00"/>
      </g>
      <g transform="matrix(0.53, 0.85, -0.85, 0.53, 12.26, -591.08)" filter="url(#Path_20)">
        <path id="Path_20-2" data-name="Path 20" d="M7.95.224c4.391,0,7.274-2.419,7.95,8.659s-3.559,8.659-7.95,8.659S0,13.666,0,8.883,3.559.224,7.95.224Z" transform="matrix(-0.79, -0.62, 0.62, -0.79, 518.34, 315.89)" fill="#c6ff00"/>
      </g>
    </g>
    <g id="Component_6_1" data-name="Component 6 – 1" transform="translate(374.447 183)">
      <g transform="matrix(1, 0, 0, 1, -374.45, -183)" filter="url(#Ellipse_1)">
        <ellipse id="Ellipse_1-4" data-name="Ellipse 1" cx="58.5" cy="60.5" rx="58.5" ry="60.5" transform="translate(388 195)" fill="#fff"/>
      </g>
      <rect id="Rectangle_1" data-name="Rectangle 1" width="24" height="24" transform="translate(60.553)" fill="#fff"/>
      <rect id="Rectangle_2" data-name="Rectangle 2" width="24" height="24" transform="matrix(0.839, 0.545, -0.545, 0.839, 97.316, 3.4)" fill="#fff"/>
      <rect id="Rectangle_3" data-name="Rectangle 3" width="24" height="24" transform="translate(30.485 99.466) rotate(38)" fill="#fff"/>
      <rect id="Rectangle_4" data-name="Rectangle 4" width="24" height="24" transform="translate(48.413 112.929) rotate(20)" fill="#fff"/>
      <rect id="Rectangle_5" data-name="Rectangle 5" width="24" height="24" transform="matrix(0.99, -0.139, 0.139, 0.99, 71.062, 120.097)" fill="#fff"/>
      <rect id="Rectangle_6" data-name="Rectangle 6" width="24" height="24" transform="matrix(0.719, 0.695, -0.695, 0.719, 109.105, 99.342)" fill="#fff"/>
      <rect id="Rectangle_7" data-name="Rectangle 7" width="24" height="24" transform="matrix(0.899, 0.438, -0.438, 0.899, 119.996, 78.102)" fill="#fff"/>
      <rect id="Rectangle_8" data-name="Rectangle 8" width="24" height="24" transform="translate(117.967 54) rotate(-5)" fill="#fff"/>
      <rect id="Rectangle_9" data-name="Rectangle 9" width="24" height="24" transform="translate(123.883 20.351) rotate(53)" fill="#fff"/>
      <rect id="Rectangle_10" data-name="Rectangle 10" width="24" height="24" transform="matrix(0.809, 0.588, -0.588, 0.809, 20.899, 19.939)" fill="#fff"/>
      <rect id="Rectangle_11" data-name="Rectangle 11" width="24" height="24" transform="translate(3.34 52.249) rotate(8)" fill="#fff"/>
      <rect id="Rectangle_12" data-name="Rectangle 12" width="24" height="24" transform="translate(22.993 78.727) rotate(71)" fill="#fff"/>
      <rect id="Rectangle_13" data-name="Rectangle 13" width="24" height="24" transform="matrix(0.391, 0.921, -0.921, 0.391, 50.686, 2.265)" fill="#fff"/>
    </g>
    <g id="Group_8" data-name="Group 8" transform="translate(10 -176)">
      <g id="Component_4_1" data-name="Component 4 – 1" transform="translate(504.447 327)">
        <g transform="matrix(1, 0, 0, 1, -514.45, -151)" filter="url(#Ellipse_1-2)">
          <ellipse id="Ellipse_1-5" data-name="Ellipse 1" cx="57.5" cy="60.5" rx="57.5" ry="60.5" transform="translate(528 163)" fill="#c6ff00"/>
        </g>
        <rect id="Rectangle_1-2" data-name="Rectangle 1" width="24" height="24" transform="translate(59.553)" fill="#c6ff00"/>
        <rect id="Rectangle_2-2" data-name="Rectangle 2" width="24" height="24" transform="matrix(0.839, 0.545, -0.545, 0.839, 96.169, 3.232)" fill="#c6ff00"/>
        <rect id="Rectangle_3-2" data-name="Rectangle 3" width="24" height="24" transform="translate(30.485 99.466) rotate(38)" fill="#c6ff00"/>
        <rect id="Rectangle_4-2" data-name="Rectangle 4" width="24" height="24" transform="translate(47.877 112.929) rotate(20)" fill="#c6ff00"/>
        <rect id="Rectangle_5-2" data-name="Rectangle 5" width="24" height="24" transform="matrix(0.99, -0.139, 0.139, 0.99, 70.146, 120.097)" fill="#c6ff00"/>
        <rect id="Rectangle_6-2" data-name="Rectangle 6" width="24" height="24" transform="matrix(0.719, 0.695, -0.695, 0.719, 107.597, 99.342)" fill="#c6ff00" opacity="0.998"/>
        <rect id="Rectangle_7-2" data-name="Rectangle 7" width="24" height="24" transform="matrix(0.899, 0.438, -0.438, 0.899, 118.489, 78.051)" fill="#c6ff00"/>
        <rect id="Rectangle_8-2" data-name="Rectangle 8" width="24" height="24" transform="translate(116.459 53.906) rotate(-5)" fill="#c6ff00"/>
        <rect id="Rectangle_9-2" data-name="Rectangle 9" width="24" height="24" transform="translate(122.375 20.183) rotate(53)" fill="#c6ff00"/>
        <rect id="Rectangle_10-2" data-name="Rectangle 10" width="24" height="24" transform="matrix(0.809, 0.588, -0.588, 0.809, 20.898, 19.771)" fill="#c6ff00"/>
        <rect id="Rectangle_11-2" data-name="Rectangle 11" width="24" height="24" transform="translate(3.34 52.156) rotate(8)" fill="#c6ff00"/>
        <rect id="Rectangle_12-2" data-name="Rectangle 12" width="24" height="24" transform="translate(22.993 78.675) rotate(71)" fill="#c6ff00"/>
        <rect id="Rectangle_13-2" data-name="Rectangle 13" width="24" height="24" transform="matrix(0.391, 0.921, -0.921, 0.391, 50.303, 2.097)" fill="#c6ff00"/>
      </g>
    </g>
    <g id="Component_8_1" data-name="Component 8 – 1" transform="translate(586 295)">
      <g transform="matrix(1, 0, 0, 1, -586, -295)" filter="url(#Ellipse_10-2)">
        <ellipse id="Ellipse_10-4" data-name="Ellipse 10" cx="13.5" cy="12.5" rx="13.5" ry="12.5" transform="translate(613.07 319.07)" fill="#ff12c8"/>
      </g>
      <g transform="matrix(1, 0, 0, 1, -586, -295)" filter="url(#Path_8-2)">
        <path id="Path_8-4" data-name="Path 8" d="M13.5,0C20.956,0,25.852-3.492,27,12.5S20.956,25,13.5,25,0,19.4,0,12.5,6.044,0,13.5,0Z" transform="matrix(0.9, -0.44, 0.44, 0.9, 629.96, 314.28)" fill="#fff"/>
      </g>
      <g transform="matrix(1, 0, 0, 1, -586, -295)" filter="url(#Path_9)">
        <path id="Path_9-2" data-name="Path 9" d="M13.5,0C31.738.809,27,5.6,27,12.5S20.956,25,13.5,25,0,19.4,0,12.5-4.738-.809,13.5,0Z" transform="translate(611.07 295.07)" fill="#707070"/>
      </g>
      <g transform="matrix(1, 0, 0, 1, -586, -295)" filter="url(#Path_10-2)">
        <path id="Path_10-4" data-name="Path 10" d="M13.5,0C20.956,0,25.852-3.492,27,12.5S20.956,25,13.5,25,0,19.4,0,12.5,6.044,0,13.5,0Z" transform="translate(639.74 327.9) rotate(22)" fill="#fff"/>
      </g>
      <g transform="matrix(1, 0, 0, 1, -586, -295)" filter="url(#Path_11-2)">
        <path id="Path_11-4" data-name="Path 11" d="M13.5,0C20.956,0,25.852-3.492,27,12.5S20.956,25,13.5,25,0,19.4,0,12.5,6.044,0,13.5,0Z" transform="translate(622.81 347.67) rotate(147)" fill="#fff"/>
      </g>
      <g transform="matrix(1, 0, 0, 1, -586, -295)" filter="url(#Path_12-2)">
        <path id="Path_12-4" data-name="Path 12" d="M13.5,0C20.956,0,25.852-3.492,27,12.5S20.956,25,13.5,25,0,19.4,0,12.5,6.044,0,13.5,0Z" transform="translate(606.98 337.86) rotate(-140)" fill="#fff"/>
      </g>
      <g transform="matrix(1, 0, 0, 1, -586, -295)" filter="url(#Path_13-2)">
        <path id="Path_13-4" data-name="Path 13" d="M13.5,0C20.956,0,25.852-3.492,27,12.5S20.956,25,13.5,25,0,19.4,0,12.5,6.044,0,13.5,0Z" transform="translate(635.89 343.79) rotate(89)" fill="#fff"/>
      </g>
    </g>
    <g id="Component_4_2" data-name="Component 4 – 2" transform="translate(657 105)">
      <g transform="matrix(1, 0, 0, 1, -657, -105)" filter="url(#Ellipse_1-3)">
        <ellipse id="Ellipse_1-6" data-name="Ellipse 1" cx="57.5" cy="60.5" rx="57.5" ry="60.5" transform="translate(670.55 117)" fill="#ff12c8"/>
      </g>
      <rect id="Rectangle_1-3" data-name="Rectangle 1" width="24" height="24" transform="translate(59.553)" fill="#ff12c8"/>
      <rect id="Rectangle_2-3" data-name="Rectangle 2" width="24" height="24" transform="matrix(0.839, 0.545, -0.545, 0.839, 96.169, 3.232)" fill="#ff12c8"/>
      <rect id="Rectangle_3-3" data-name="Rectangle 3" width="24" height="24" transform="translate(30.485 99.466) rotate(38)" fill="#ff12c8"/>
      <rect id="Rectangle_4-3" data-name="Rectangle 4" width="24" height="24" transform="translate(47.877 112.929) rotate(20)" fill="#ff12c8"/>
      <rect id="Rectangle_5-3" data-name="Rectangle 5" width="24" height="24" transform="matrix(0.99, -0.139, 0.139, 0.99, 70.146, 120.097)" fill="#ff12c8"/>
      <rect id="Rectangle_6-3" data-name="Rectangle 6" width="24" height="24" transform="matrix(0.719, 0.695, -0.695, 0.719, 107.597, 99.342)" fill="#ff12c8" opacity="0.998"/>
      <rect id="Rectangle_7-3" data-name="Rectangle 7" width="24" height="24" transform="matrix(0.899, 0.438, -0.438, 0.899, 118.489, 78.051)" fill="#ff12c8"/>
      <rect id="Rectangle_8-3" data-name="Rectangle 8" width="24" height="24" transform="translate(116.459 53.906) rotate(-5)" fill="#ff12c8"/>
      <rect id="Rectangle_9-3" data-name="Rectangle 9" width="24" height="24" transform="translate(122.375 20.183) rotate(53)" fill="#ff12c8"/>
      <rect id="Rectangle_10-3" data-name="Rectangle 10" width="24" height="24" transform="matrix(0.809, 0.588, -0.588, 0.809, 20.898, 19.771)" fill="#ff12c8"/>
      <rect id="Rectangle_11-3" data-name="Rectangle 11" width="24" height="24" transform="translate(3.34 52.156) rotate(8)" fill="#ff12c8"/>
      <rect id="Rectangle_12-3" data-name="Rectangle 12" width="24" height="24" transform="translate(22.993 78.675) rotate(71)" fill="#ff12c8"/>
      <rect id="Rectangle_13-3" data-name="Rectangle 13" width="24" height="24" transform="matrix(0.391, 0.921, -0.921, 0.391, 50.303, 2.097)" fill="#ff12c8"/>
    </g>
  </g>
</svg>
