<svg xmlns="http://www.w3.org/2000/svg" xmlns:xlink="http://www.w3.org/1999/xlink" width="1920" height="1080" viewBox="0 0 1920 1080">
  <defs>
    <filter id="Ellipse_13" x="641.709" y="239.473" width="68.093" height="67.505" filterUnits="userSpaceOnUse">
      <feOffset dy="3" input="SourceAlpha"/>
      <feGaussianBlur stdDeviation="3" result="blur"/>
      <feFlood flood-opacity="0.624"/>
      <feComposite operator="in" in2="blur"/>
      <feComposite in="SourceGraphic"/>
    </filter>
    <filter id="Path_1" x="643.093" y="232.872" width="42.888" height="42.136" filterUnits="userSpaceOnUse">
      <feOffset dy="3" input="SourceAlpha"/>
      <feGaussianBlur stdDeviation="3" result="blur-2"/>
      <feFlood flood-opacity="0.624"/>
      <feComposite operator="in" in2="blur-2"/>
      <feComposite in="SourceGraphic"/>
    </filter>
    <filter id="Path_2" x="667.717" y="230.399" width="43.253" height="42.962" filterUnits="userSpaceOnUse">
      <feOffset dy="3" input="SourceAlpha"/>
      <feGaussianBlur stdDeviation="3" result="blur-3"/>
      <feFlood flood-opacity="0.624"/>
      <feComposite operator="in" in2="blur-3"/>
      <feComposite in="SourceGraphic"/>
    </filter>
    <filter id="Path_3" x="681.305" y="250.748" width="40.406" height="39.592" filterUnits="userSpaceOnUse">
      <feOffset dy="3" input="SourceAlpha"/>
      <feGaussianBlur stdDeviation="3" result="blur-4"/>
      <feFlood flood-opacity="0.624"/>
      <feComposite operator="in" in2="blur-4"/>
      <feComposite in="SourceGraphic"/>
    </filter>
    <filter id="Path_6" x="644.318" y="274.777" width="42.135" height="42.105" filterUnits="userSpaceOnUse">
      <feOffset dy="3" input="SourceAlpha"/>
      <feGaussianBlur stdDeviation="3" result="blur-5"/>
      <feFlood flood-opacity="0.624"/>
      <feComposite operator="in" in2="blur-5"/>
      <feComposite in="SourceGraphic"/>
    </filter>
    <filter id="Path_7" x="634.416" y="255.42" width="34.999" height="38.05" filterUnits="userSpaceOnUse">
      <feOffset dy="3" input="SourceAlpha"/>
      <feGaussianBlur stdDeviation="3" result="blur-6"/>
      <feFlood flood-opacity="0.624"/>
      <feComposite operator="in" in2="blur-6"/>
      <feComposite in="SourceGraphic"/>
    </filter>
    <filter id="Path_21" x="668.412" y="268.703" width="45.53" height="45.554" filterUnits="userSpaceOnUse">
      <feOffset dy="3" input="SourceAlpha"/>
      <feGaussianBlur stdDeviation="3" result="blur-7"/>
      <feFlood flood-opacity="0.624"/>
      <feComposite operator="in" in2="blur-7"/>
      <feComposite in="SourceGraphic"/>
    </filter>
    <filter id="Path_16" x="441.644" y="83.595" width="68.422" height="69.988" filterUnits="userSpaceOnUse">
      <feOffset dy="3" input="SourceAlpha"/>
      <feGaussianBlur stdDeviation="3" result="blur-8"/>
      <feFlood flood-opacity="0.627"/>
      <feComposite operator="in" in2="blur-8"/>
      <feComposite in="SourceGraphic"/>
    </filter>
    <filter id="Path_17" x="477.906" y="109.765" width="66.804" height="69.92" filterUnits="userSpaceOnUse">
      <feOffset dy="3" input="SourceAlpha"/>
      <feGaussianBlur stdDeviation="3" result="blur-9"/>
      <feFlood flood-opacity="0.627"/>
      <feComposite operator="in" in2="blur-9"/>
      <feComposite in="SourceGraphic"/>
    </filter>
    <filter id="Path_18" x="447.241" y="111.805" width="70.026" height="67.681" filterUnits="userSpaceOnUse">
      <feOffset dy="3" input="SourceAlpha"/>
      <feGaussianBlur stdDeviation="3" result="blur-10"/>
      <feFlood flood-opacity="0.627"/>
      <feComposite operator="in" in2="blur-10"/>
      <feComposite in="SourceGraphic"/>
    </filter>
    <filter id="Path_19" x="469.354" y="85.204" width="69.853" height="66.482" filterUnits="userSpaceOnUse">
      <feOffset dy="3" input="SourceAlpha"/>
      <feGaussianBlur stdDeviation="3" result="blur-11"/>
      <feFlood flood-opacity="0.627"/>
      <feComposite operator="in" in2="blur-11"/>
      <feComposite in="SourceGraphic"/>
    </filter>
    <filter id="Ellipse_4" x="466.099" y="107.053" width="52.532" height="52.385" filterUnits="userSpaceOnUse">
      <feOffset dy="3" input="SourceAlpha"/>
      <feGaussianBlur stdDeviation="3" result="blur-12"/>
      <feFlood flood-opacity="0.627"/>
      <feComposite operator="in" in2="blur-12"/>
      <feComposite in="SourceGraphic"/>
    </filter>
    <filter id="Path_16-2" x="611.807" y="51.852" width="61.568" height="75.123" filterUnits="userSpaceOnUse">
      <feOffset dy="3" input="SourceAlpha"/>
      <feGaussianBlur stdDeviation="3" result="blur-13"/>
      <feFlood flood-opacity="0.616"/>
      <feComposite operator="in" in2="blur-13"/>
      <feComposite in="SourceGraphic"/>
    </filter>
    <filter id="Path_17-2" x="599.046" y="88.118" width="68.948" height="78.15" filterUnits="userSpaceOnUse">
      <feOffset dy="3" input="SourceAlpha"/>
      <feGaussianBlur stdDeviation="3" result="blur-14"/>
      <feFlood flood-opacity="0.161"/>
      <feComposite operator="in" in2="blur-14"/>
      <feComposite in="SourceGraphic"/>
    </filter>
    <filter id="Path_18-2" x="585.276" y="69.493" width="73.032" height="68.386" filterUnits="userSpaceOnUse">
      <feOffset dy="3" input="SourceAlpha"/>
      <feGaussianBlur stdDeviation="3" result="blur-15"/>
      <feFlood flood-opacity="0.616"/>
      <feComposite operator="in" in2="blur-15"/>
      <feComposite in="SourceGraphic"/>
    </filter>
    <filter id="Path_19-2" x="617.519" y="79.608" width="77.15" height="67.555" filterUnits="userSpaceOnUse">
      <feOffset dy="3" input="SourceAlpha"/>
      <feGaussianBlur stdDeviation="3" result="blur-16"/>
      <feFlood flood-opacity="0.616"/>
      <feComposite operator="in" in2="blur-16"/>
      <feComposite in="SourceGraphic"/>
    </filter>
    <filter id="Ellipse_4-2" x="607.02" y="75.727" width="63.355" height="65.412" filterUnits="userSpaceOnUse">
      <feOffset dy="3" input="SourceAlpha"/>
      <feGaussianBlur stdDeviation="3" result="blur-17"/>
      <feFlood flood-opacity="0.616"/>
      <feComposite operator="in" in2="blur-17"/>
      <feComposite in="SourceGraphic"/>
    </filter>
    <filter id="Ellipse_10" x="494.205" y="277.342" width="75.695" height="76.292" filterUnits="userSpaceOnUse">
      <feOffset dy="3" input="SourceAlpha"/>
      <feGaussianBlur stdDeviation="8.5" result="blur-18"/>
      <feFlood flood-opacity="0.369"/>
      <feComposite operator="in" in2="blur-18"/>
      <feComposite in="SourceGraphic"/>
    </filter>
    <filter id="Path_8" x="516.046" y="316.717" width="36.313" height="34.582" filterUnits="userSpaceOnUse">
      <feOffset dy="3" input="SourceAlpha"/>
      <feGaussianBlur stdDeviation="3" result="blur-19"/>
      <feFlood flood-opacity="0.369"/>
      <feComposite operator="in" in2="blur-19"/>
      <feComposite in="SourceGraphic"/>
    </filter>
    <filter id="Path_10" x="494.777" y="306.2" width="39.385" height="41.843" filterUnits="userSpaceOnUse">
      <feOffset dy="3" input="SourceAlpha"/>
      <feGaussianBlur stdDeviation="3" result="blur-20"/>
      <feFlood flood-opacity="0.369"/>
      <feComposite operator="in" in2="blur-20"/>
      <feComposite in="SourceGraphic"/>
    </filter>
    <filter id="Path_11" x="511.382" y="277.494" width="40.415" height="37.211" filterUnits="userSpaceOnUse">
      <feOffset dy="3" input="SourceAlpha"/>
      <feGaussianBlur stdDeviation="3" result="blur-21"/>
      <feFlood flood-opacity="0.369"/>
      <feComposite operator="in" in2="blur-21"/>
      <feComposite in="SourceGraphic"/>
    </filter>
    <filter id="Path_12" x="526.57" y="283.281" width="40.615" height="41.661" filterUnits="userSpaceOnUse">
      <feOffset dy="3" input="SourceAlpha"/>
      <feGaussianBlur stdDeviation="3" result="blur-22"/>
      <feFlood flood-opacity="0.369"/>
      <feComposite operator="in" in2="blur-22"/>
      <feComposite in="SourceGraphic"/>
    </filter>
    <filter id="Path_13" x="496.367" y="286.6" width="39.539" height="42.363" filterUnits="userSpaceOnUse">
      <feOffset dy="3" input="SourceAlpha"/>
      <feGaussianBlur stdDeviation="3" result="blur-23"/>
      <feFlood flood-opacity="0.369"/>
      <feComposite operator="in" in2="blur-23"/>
      <feComposite in="SourceGraphic"/>
    </filter>
    <filter id="Path_20" x="530.844" y="300.77" width="40.143" height="40.97" filterUnits="userSpaceOnUse">
      <feOffset dy="3" input="SourceAlpha"/>
      <feGaussianBlur stdDeviation="3" result="blur-24"/>
      <feFlood flood-opacity="0.369"/>
      <feComposite operator="in" in2="blur-24"/>
      <feComposite in="SourceGraphic"/>
    </filter>
    <filter id="Ellipse_1" x="346.018" y="162.153" width="217.662" height="216.777" filterUnits="userSpaceOnUse">
      <feOffset dx="8" dy="16" input="SourceAlpha"/>
      <feGaussianBlur stdDeviation="8.5" result="blur-25"/>
      <feFlood flood-opacity="0.612"/>
      <feComposite operator="in" in2="blur-25"/>
      <feComposite in="SourceGraphic"/>
    </filter>
    <filter id="Ellipse_1-2" x="492.212" y="124.537" width="217.427" height="217.871" filterUnits="userSpaceOnUse">
      <feOffset dx="15" dy="10" input="SourceAlpha"/>
      <feGaussianBlur stdDeviation="8.5" result="blur-26"/>
      <feFlood flood-opacity="0.608"/>
      <feComposite operator="in" in2="blur-26"/>
      <feComposite in="SourceGraphic"/>
    </filter>
    <filter id="Ellipse_10-2" x="599.166" y="308.206" width="53.227" height="52.306" filterUnits="userSpaceOnUse">
      <feOffset dy="3" input="SourceAlpha"/>
      <feGaussianBlur stdDeviation="3" result="blur-27"/>
      <feFlood flood-opacity="0.608"/>
      <feComposite operator="in" in2="blur-27"/>
      <feComposite in="SourceGraphic"/>
    </filter>
    <filter id="Path_8-2" x="611.995" y="286.761" width="54.906" height="55.161" filterUnits="userSpaceOnUse">
      <feOffset dy="3" input="SourceAlpha"/>
      <feGaussianBlur stdDeviation="3" result="blur-28"/>
      <feFlood flood-opacity="0.608"/>
      <feComposite operator="in" in2="blur-28"/>
      <feComposite in="SourceGraphic"/>
    </filter>
    <filter id="Path_9" x="586.319" y="287.207" width="54.253" height="52.854" filterUnits="userSpaceOnUse">
      <feOffset dy="3" input="SourceAlpha"/>
      <feGaussianBlur stdDeviation="3" result="blur-29"/>
      <feFlood flood-opacity="0.608"/>
      <feComposite operator="in" in2="blur-29"/>
      <feComposite in="SourceGraphic"/>
    </filter>
    <filter id="Path_10-2" x="626.985" y="314.074" width="46.844" height="45.475" filterUnits="userSpaceOnUse">
      <feOffset dy="3" input="SourceAlpha"/>
      <feGaussianBlur stdDeviation="3" result="blur-30"/>
      <feFlood flood-opacity="0.608"/>
      <feComposite operator="in" in2="blur-30"/>
      <feComposite in="SourceGraphic"/>
    </filter>
    <filter id="Path_11-2" x="584.784" y="328.433" width="53.951" height="54.456" filterUnits="userSpaceOnUse">
      <feOffset dy="3" input="SourceAlpha"/>
      <feGaussianBlur stdDeviation="3" result="blur-31"/>
      <feFlood flood-opacity="0.608"/>
      <feComposite operator="in" in2="blur-31"/>
      <feComposite in="SourceGraphic"/>
    </filter>
    <filter id="Path_12-2" x="575.54" y="308.469" width="50.52" height="49.445" filterUnits="userSpaceOnUse">
      <feOffset dy="3" input="SourceAlpha"/>
      <feGaussianBlur stdDeviation="3" result="blur-32"/>
      <feFlood flood-opacity="0.608"/>
      <feComposite operator="in" in2="blur-32"/>
      <feComposite in="SourceGraphic"/>
    </filter>
    <filter id="Path_13-2" x="607.954" y="332.112" width="53.163" height="53.808" filterUnits="userSpaceOnUse">
      <feOffset dy="3" input="SourceAlpha"/>
      <feGaussianBlur stdDeviation="3" result="blur-33"/>
      <feFlood flood-opacity="0.161"/>
      <feComposite operator="in" in2="blur-33"/>
      <feComposite in="SourceGraphic"/>
    </filter>
    <filter id="Ellipse_1-3" x="654.95" y="96.701" width="176.108" height="181.562" filterUnits="userSpaceOnUse">
      <feOffset dx="15" dy="10" input="SourceAlpha"/>
      <feGaussianBlur stdDeviation="8.5" result="blur-34"/>
      <feFlood flood-opacity="0.608"/>
      <feComposite operator="in" in2="blur-34"/>
      <feComposite in="SourceGraphic"/>
    </filter>
    <clipPath id="clip-Web_1920_2">
      <rect width="1920" height="1080"/>
    </clipPath>
  </defs>
  <g id="Web_1920_2" data-name="Web 1920 – 2" clip-path="url(#clip-Web_1920_2)">
    <rect width="1920" height="1080" fill="#92bebf"/>
    <g id="Component_5_1" data-name="Component 5 – 1" transform="translate(624.678 244.769) rotate(-17)">
      <g id="Group_4" data-name="Group 4" transform="translate(-932.809 -229.089) rotate(-16)">
        <g transform="matrix(0.84, 0.54, -0.54, 0.84, 442.94, -68.17)" filter="url(#Ellipse_13)">
          <ellipse id="Ellipse_13-2" data-name="Ellipse 13" cx="18.5" cy="17.5" rx="18.5" ry="17.5" transform="translate(650.71 265.62) rotate(-33)" fill="#005b64"/>
        </g>
        <g transform="matrix(0.84, 0.54, -0.54, 0.84, 442.94, -68.17)" filter="url(#Path_1)">
          <path id="Path_1-2" data-name="Path 1" d="M9.594-1.309,19,15.131,9.594,6.614,0,15.131Z" transform="translate(652.81 250.32) rotate(-33)" fill="#fff"/>
        </g>
        <g transform="matrix(0.84, 0.54, -0.54, 0.84, 442.94, -68.17)" filter="url(#Path_2)">
          <path id="Path_2-2" data-name="Path 2" d="M9.594-1.309,19,17.026,8.221,7.924,0,17.026Z" transform="translate(684.45 237.57) rotate(27)" fill="#fff"/>
        </g>
        <g transform="matrix(0.84, 0.54, -0.54, 0.84, 442.94, -68.17)" filter="url(#Path_3)">
          <path id="Path_3-2" data-name="Path 3" d="M9.594-1.309,19,18.648,8.973,9.381,0,18.648Z" transform="translate(708.77 256.93) rotate(82)" fill="#fff"/>
        </g>
        <g transform="matrix(0.84, 0.54, -0.54, 0.84, 442.94, -68.17)" filter="url(#Path_6)">
          <path id="Path_6-2" data-name="Path 6" d="M9.594-1.309,19,17.643,9.792,8.258,0,17.643Z" transform="matrix(-0.95, -0.33, 0.33, -0.95, 671.71, 303.64)" fill="#fff"/>
        </g>
        <g transform="matrix(0.84, 0.54, -0.54, 0.84, 442.94, -68.17)" filter="url(#Path_7)">
          <path id="Path_7-2" data-name="Path 7" d="M9.594-1.309,19,14.4,8.75,8.129,0,14.4Z" transform="translate(646.05 281.38) rotate(-94)" fill="#fff"/>
        </g>
        <g transform="matrix(0.84, 0.54, -0.54, 0.84, 442.94, -68.17)" filter="url(#Path_21)">
          <path id="Path_21-2" data-name="Path 21" d="M9.594-1.309,19,18.648,8.973,9.381,0,18.648Z" transform="translate(704.03 288.12) rotate(136)" fill="#fff"/>
        </g>
      </g>
    </g>
    <g id="Component_7_1" data-name="Component 7 – 1" transform="translate(502.605 180.517) rotate(-141)">
      <path id="Path_14" data-name="Path 14" d="M15,0c8.284,0,19.734-20.41,15,15S23.284,30,15,30A15,15,0,0,1,15,0Z" transform="translate(46.094 18.624)" fill="#fff"/>
      <g transform="matrix(-0.78, 0.63, -0.63, -0.78, 504.2, -176.01)" filter="url(#Path_16)">
        <path id="Path_16-3" data-name="Path 16" d="M15,0c8.284,0,19.734-20.41,15,15S23.284,30,15,30A15,15,0,0,1,15,0Z" transform="translate(478.5 137.03) rotate(-141)" fill="#ff12c8"/>
      </g>
      <g transform="matrix(-0.78, 0.63, -0.63, -0.78, 504.2, -176.01)" filter="url(#Path_17)">
        <path id="Path_17-3" data-name="Path 17" d="M15,0c8.284,0,19.734-20.41,15,15S23.284,30,15,30A15,15,0,0,1,15,0Z" transform="translate(506.43 120.67) rotate(33)" fill="#ff12c8"/>
      </g>
      <g transform="matrix(-0.78, 0.63, -0.63, -0.78, 504.2, -176.01)" filter="url(#Path_18)">
        <path id="Path_18-3" data-name="Path 18" d="M15,0c8.284,0,19.734-20.41,15,15S23.284,30,15,30A15,15,0,0,1,15,0Z" transform="matrix(-0.59, 0.81, -0.81, -0.59, 503.53, 138.88)" fill="#ff12c8"/>
      </g>
      <g transform="matrix(-0.78, 0.63, -0.63, -0.78, 504.2, -176.01)" filter="url(#Path_19)">
        <path id="Path_19-3" data-name="Path 19" d="M15,0c8.284,0,19.734-20.41,15,15S23.284,30,15,30A15,15,0,0,1,15,0Z" transform="translate(483.32 120.69) rotate(-58)" fill="#ff12c8"/>
      </g>
      <g transform="matrix(-0.78, 0.63, -0.63, -0.78, 504.2, -176.01)" filter="url(#Ellipse_4)">
        <ellipse id="Ellipse_4-3" data-name="Ellipse 4" cx="12.5" cy="12" rx="12.5" ry="12" transform="translate(494.53 147.44) rotate(-141)" fill="#707070"/>
      </g>
    </g>
    <g id="Component_3_1" data-name="Component 3 – 1" transform="translate(583.804 139.976) rotate(-74)">
      <g transform="matrix(0.28, 0.96, -0.96, 0.28, -26.36, -599.77)" filter="url(#Path_16-2)">
        <path id="Path_16-4" data-name="Path 16" d="M15.283-.63c8.44,0,42.03-15.278,37.206,16.322s-28.766,10.45-37.206,10.45S0,20.149,0,12.756,6.842-.63,15.283-.63Z" transform="matrix(0.12, -0.99, 0.99, 0.12, 625.1, 110.94)" fill="#707070"/>
      </g>
      <g transform="matrix(0.28, 0.96, -0.96, 0.28, -26.36, -599.77)" filter="url(#Path_17-2)">
        <path id="Path_17-4" data-name="Path 17" d="M15,5.853c8.284,0,42.915-14.821,38.181,20.59s-29.9,9.41-38.181,9.41a15,15,0,0,1,0-30Z" transform="matrix(-0.17, 0.98, -0.98, -0.17, 661.73, 101.94)" fill="#fff"/>
      </g>
      <g transform="matrix(0.28, 0.96, -0.96, 0.28, -26.36, -599.77)" filter="url(#Path_18-2)">
        <path id="Path_18-4" data-name="Path 18" d="M15,5.853c8.284,0,37.107-16.266,32.372,19.145S23.284,35.853,15,35.853a15,15,0,0,1,0-30Z" transform="translate(640.89 127.96) rotate(-169)" fill="#fff"/>
      </g>
      <g transform="matrix(0.28, 0.96, -0.96, 0.28, -26.36, -599.77)" filter="url(#Path_19-2)">
        <path id="Path_19-4" data-name="Path 19" d="M15,5.853c8.284,0,42.565-19.138,37.831,16.272S23.284,35.853,15,35.853a15,15,0,0,1,0-30Z" transform="translate(633.16 84.93) rotate(9)" fill="#fff"/>
      </g>
      <g transform="matrix(0.28, 0.96, -0.96, 0.28, -26.36, -599.77)" filter="url(#Ellipse_4-2)">
        <ellipse id="Ellipse_4-4" data-name="Ellipse 4" cx="19.5" cy="18" rx="19.5" ry="18" transform="translate(616.02 119.22) rotate(-74)" fill="#c6ff00"/>
      </g>
    </g>
    <g id="Component_2_1" data-name="Component 2 – 1" transform="translate(569.073 294.303) rotate(110)">
      <g transform="matrix(-0.34, -0.94, 0.94, -0.34, -81.92, 635.41)" filter="url(#Ellipse_10)">
        <ellipse id="Ellipse_10-3" data-name="Ellipse 10" cx="10" cy="9.5" rx="10" ry="9.5" transform="translate(544.4 306.34) rotate(110)" fill="#005b64"/>
      </g>
      <g transform="matrix(-0.34, -0.94, 0.94, -0.34, -81.92, 635.41)" filter="url(#Path_8)">
        <path id="Path_8-3" data-name="Path 8" d="M7.95.224c4.391,0,7.274-2.419,7.95,8.659s-3.559,8.659-7.95,8.659S0,13.666,0,8.883,3.559.224,7.95.224Z" transform="matrix(-0.03, 1, -1, -0.03, 543.36, 323.34)" fill="#c6ff00"/>
      </g>
      <g transform="matrix(-0.34, -0.94, 0.94, -0.34, -81.92, 635.41)" filter="url(#Path_10)">
        <path id="Path_10-3" data-name="Path 10" d="M7.759.248c4.285,0,7.1-2.683,7.759,9.6s-3.474,9.6-7.759,9.6S0,15.153,0,9.85,3.474.248,7.759.248Z" transform="translate(525.16 330.71) rotate(160)" fill="#c6ff00"/>
      </g>
      <g transform="matrix(-0.34, -0.94, 0.94, -0.34, -81.92, 635.41)" filter="url(#Path_11)">
        <path id="Path_11-3" data-name="Path 11" d="M7.574.245c4.183,0,6.93-2.654,7.574,9.5s-3.391,9.5-7.574,9.5S0,14.993,0,9.746,3.391.245,7.574.245Z" transform="translate(523.8 302.7) rotate(-103)" fill="#c6ff00"/>
      </g>
      <g transform="matrix(-0.34, -0.94, 0.94, -0.34, -81.92, 635.41)" filter="url(#Path_12)">
        <path id="Path_12-3" data-name="Path 12" d="M7.72.231c4.263,0,7.063-2.5,7.72,8.953s-3.456,8.953-7.72,8.953S0,14.129,0,9.184,3.456.231,7.72.231Z" transform="translate(535.57 297.04) rotate(-30)" fill="#c6ff00"/>
      </g>
      <g transform="matrix(-0.34, -0.94, 0.94, -0.34, -81.92, 635.41)" filter="url(#Path_13)">
        <path id="Path_13-3" data-name="Path 13" d="M7.854.256c4.338,0,7.186-2.769,7.854,9.911s-3.516,9.911-7.854,9.911S0,15.641,0,10.167,3.516.256,7.854.256Z" transform="translate(520.29 316.96) rotate(-161)" fill="#c6ff00"/>
      </g>
      <g transform="matrix(-0.34, -0.94, 0.94, -0.34, -81.92, 635.41)" filter="url(#Path_20)">
        <path id="Path_20-2" data-name="Path 20" d="M7.95.224c4.391,0,7.274-2.419,7.95,8.659s-3.559,8.659-7.95,8.659S0,13.666,0,8.883,3.559.224,7.95.224Z" transform="translate(547.63 306.77) rotate(26)" fill="#c6ff00"/>
      </g>
    </g>
    <g id="Component_6_1" data-name="Component 6 – 1" transform="matrix(-0.588, -0.809, 0.809, -0.588, 430.547, 355.448)">
      <g transform="matrix(-0.59, 0.81, -0.81, -0.59, 540.63, -139.39)" filter="url(#Ellipse_1)">
        <ellipse id="Ellipse_1-4" data-name="Ellipse 1" cx="58.5" cy="60.5" rx="58.5" ry="60.5" transform="matrix(-0.59, -0.81, 0.81, -0.59, 432.29, 337.43)" fill="#fff"/>
      </g>
      <rect id="Rectangle_1" data-name="Rectangle 1" width="24" height="24" transform="translate(60.553)" fill="#fff"/>
      <rect id="Rectangle_2" data-name="Rectangle 2" width="24" height="24" transform="matrix(0.839, 0.545, -0.545, 0.839, 97.316, 3.4)" fill="#fff"/>
      <rect id="Rectangle_3" data-name="Rectangle 3" width="24" height="24" transform="translate(30.485 99.466) rotate(38)" fill="#fff"/>
      <rect id="Rectangle_4" data-name="Rectangle 4" width="24" height="24" transform="translate(48.413 112.929) rotate(20)" fill="#fff"/>
      <rect id="Rectangle_5" data-name="Rectangle 5" width="24" height="24" transform="matrix(0.99, -0.139, 0.139, 0.99, 71.062, 120.097)" fill="#fff"/>
      <rect id="Rectangle_6" data-name="Rectangle 6" width="24" height="24" transform="matrix(0.719, 0.695, -0.695, 0.719, 109.105, 99.342)" fill="#fff"/>
      <rect id="Rectangle_7" data-name="Rectangle 7" width="24" height="24" transform="matrix(0.899, 0.438, -0.438, 0.899, 119.996, 78.102)" fill="#fff"/>
      <rect id="Rectangle_8" data-name="Rectangle 8" width="24" height="24" transform="translate(117.967 54) rotate(-5)" fill="#fff"/>
      <rect id="Rectangle_9" data-name="Rectangle 9" width="24" height="24" transform="translate(123.883 20.351) rotate(53)" fill="#fff"/>
      <rect id="Rectangle_10" data-name="Rectangle 10" width="24" height="24" transform="matrix(0.809, 0.588, -0.588, 0.809, 20.899, 19.939)" fill="#fff"/>
      <rect id="Rectangle_11" data-name="Rectangle 11" width="24" height="24" transform="translate(3.34 52.249) rotate(8)" fill="#fff"/>
      <rect id="Rectangle_12" data-name="Rectangle 12" width="24" height="24" transform="translate(22.993 78.727) rotate(71)" fill="#fff"/>
      <rect id="Rectangle_13" data-name="Rectangle 13" width="24" height="24" transform="matrix(0.391, 0.921, -0.921, 0.391, 50.686, 2.265)" fill="#fff"/>
    </g>
    <g id="Group_8" data-name="Group 8" transform="translate(-109.072 311.67) rotate(-42)">
      <g id="Component_4_1" data-name="Component 4 – 1" transform="translate(504.447 327)">
        <g transform="matrix(0.74, 0.67, -0.67, 0.74, -214.84, -485.63)" filter="url(#Ellipse_1-2)">
          <ellipse id="Ellipse_1-5" data-name="Ellipse 1" cx="57.5" cy="60.5" rx="57.5" ry="60.5" transform="translate(502.71 216.99) rotate(-42)" fill="#c6ff00"/>
        </g>
        <rect id="Rectangle_1-2" data-name="Rectangle 1" width="24" height="24" transform="translate(59.553)" fill="#c6ff00"/>
        <rect id="Rectangle_2-2" data-name="Rectangle 2" width="24" height="24" transform="matrix(0.839, 0.545, -0.545, 0.839, 96.169, 3.232)" fill="#c6ff00"/>
        <rect id="Rectangle_3-2" data-name="Rectangle 3" width="24" height="24" transform="translate(30.485 99.466) rotate(38)" fill="#c6ff00"/>
        <rect id="Rectangle_4-2" data-name="Rectangle 4" width="24" height="24" transform="translate(47.877 112.929) rotate(20)" fill="#c6ff00"/>
        <rect id="Rectangle_5-2" data-name="Rectangle 5" width="24" height="24" transform="matrix(0.99, -0.139, 0.139, 0.99, 70.146, 120.097)" fill="#c6ff00"/>
        <rect id="Rectangle_6-2" data-name="Rectangle 6" width="24" height="24" transform="matrix(0.719, 0.695, -0.695, 0.719, 107.597, 99.342)" fill="#c6ff00" opacity="0.998"/>
        <rect id="Rectangle_7-2" data-name="Rectangle 7" width="24" height="24" transform="matrix(0.899, 0.438, -0.438, 0.899, 118.489, 78.051)" fill="#c6ff00"/>
        <rect id="Rectangle_8-2" data-name="Rectangle 8" width="24" height="24" transform="translate(116.459 53.906) rotate(-5)" fill="#c6ff00"/>
        <rect id="Rectangle_9-2" data-name="Rectangle 9" width="24" height="24" transform="translate(122.375 20.183) rotate(53)" fill="#c6ff00"/>
        <rect id="Rectangle_10-2" data-name="Rectangle 10" width="24" height="24" transform="matrix(0.809, 0.588, -0.588, 0.809, 20.898, 19.771)" fill="#c6ff00"/>
        <rect id="Rectangle_11-2" data-name="Rectangle 11" width="24" height="24" transform="translate(3.34 52.156) rotate(8)" fill="#c6ff00"/>
        <rect id="Rectangle_12-2" data-name="Rectangle 12" width="24" height="24" transform="translate(22.993 78.675) rotate(71)" fill="#c6ff00"/>
        <rect id="Rectangle_13-2" data-name="Rectangle 13" width="24" height="24" transform="matrix(0.391, 0.921, -0.921, 0.391, 50.303, 2.097)" fill="#c6ff00"/>
      </g>
    </g>
    <g id="Component_8_1" data-name="Component 8 – 1" transform="matrix(0.899, -0.438, 0.438, 0.899, 573.285, 316.276)">
      <g transform="matrix(0.9, 0.44, -0.44, 0.9, -376.62, -535.58)" filter="url(#Ellipse_10-2)">
        <ellipse id="Ellipse_10-4" data-name="Ellipse 10" cx="13.5" cy="12.5" rx="13.5" ry="12.5" transform="matrix(0.9, -0.44, 0.44, 0.9, 608.17, 326.04)" fill="#ff12c8"/>
      </g>
      <g transform="matrix(0.9, 0.44, -0.44, 0.9, -376.62, -535.58)" filter="url(#Path_8-2)">
        <path id="Path_8-4" data-name="Path 8" d="M13.5,0C20.956,0,25.852-3.492,27,12.5S20.956,25,13.5,25,0,19.4,0,12.5,6.044,0,13.5,0Z" transform="matrix(0.62, -0.79, 0.79, 0.62, 621.25, 314.33)" fill="#fff"/>
      </g>
      <g transform="matrix(0.9, 0.44, -0.44, 0.9, -376.62, -535.58)" filter="url(#Path_9)">
        <path id="Path_9-2" data-name="Path 9" d="M13.5,0C31.738.809,27,5.6,27,12.5S20.956,25,13.5,25,0,19.4,0,12.5-4.738-.809,13.5,0Z" transform="matrix(0.9, -0.44, 0.44, 0.9, 595.85, 305.35)" fill="#707070"/>
      </g>
      <g transform="matrix(0.9, 0.44, -0.44, 0.9, -376.62, -535.58)" filter="url(#Path_10-2)">
        <path id="Path_10-4" data-name="Path 10" d="M13.5,0C20.956,0,25.852-3.492,27,12.5S20.956,25,13.5,25,0,19.4,0,12.5,6.044,0,13.5,0Z" transform="translate(636.01 322.29) rotate(-4)" fill="#fff"/>
      </g>
      <g transform="matrix(0.9, 0.44, -0.44, 0.9, -376.62, -535.58)" filter="url(#Path_11-2)">
        <path id="Path_11-4" data-name="Path 11" d="M13.5,0C20.956,0,25.852-3.492,27,12.5S20.956,25,13.5,25,0,19.4,0,12.5,6.044,0,13.5,0Z" transform="matrix(-0.52, 0.86, -0.86, -0.52, 629.46, 347.48)" fill="#fff"/>
      </g>
      <g transform="matrix(0.9, 0.44, -0.44, 0.9, -376.62, -535.58)" filter="url(#Path_12-2)">
        <path id="Path_12-4" data-name="Path 12" d="M13.5,0C20.956,0,25.852-3.492,27,12.5S20.956,25,13.5,25,0,19.4,0,12.5,6.044,0,13.5,0Z" transform="translate(610.93 345.6) rotate(-166)" fill="#fff"/>
      </g>
      <g transform="matrix(0.9, 0.44, -0.44, 0.9, -376.62, -535.58)" filter="url(#Path_13-2)">
        <path id="Path_13-4" data-name="Path 13" d="M13.5,0C20.956,0,25.852-3.492,27,12.5S20.956,25,13.5,25,0,19.4,0,12.5,6.044,0,13.5,0Z" transform="translate(639.52 338.26) rotate(63)" fill="#fff"/>
      </g>
    </g>
    <g id="Component_4_2" data-name="Component 4 – 2" transform="matrix(0.996, 0.087, -0.087, 0.996, 663.54, 99.066)">
      <g transform="matrix(1, -0.09, 0.09, 1, -669.65, -40.86)" filter="url(#Ellipse_1-3)">
        <ellipse id="Ellipse_1-6" data-name="Ellipse 1" cx="57.5" cy="60.5" rx="57.5" ry="60.5" transform="matrix(1, 0.09, -0.09, 1, 676, 112.2)" fill="#ff12c8"/>
      </g>
      <rect id="Rectangle_1-3" data-name="Rectangle 1" width="24" height="24" transform="translate(59.553)" fill="#ff12c8"/>
      <rect id="Rectangle_2-3" data-name="Rectangle 2" width="24" height="24" transform="matrix(0.839, 0.545, -0.545, 0.839, 96.169, 3.232)" fill="#ff12c8"/>
      <rect id="Rectangle_3-3" data-name="Rectangle 3" width="24" height="24" transform="translate(30.485 99.466) rotate(38)" fill="#ff12c8"/>
      <rect id="Rectangle_4-3" data-name="Rectangle 4" width="24" height="24" transform="translate(47.877 112.929) rotate(20)" fill="#ff12c8"/>
      <rect id="Rectangle_5-3" data-name="Rectangle 5" width="24" height="24" transform="matrix(0.99, -0.139, 0.139, 0.99, 70.146, 120.097)" fill="#ff12c8"/>
      <rect id="Rectangle_6-3" data-name="Rectangle 6" width="24" height="24" transform="matrix(0.719, 0.695, -0.695, 0.719, 107.597, 99.342)" fill="#ff12c8" opacity="0.998"/>
      <rect id="Rectangle_7-3" data-name="Rectangle 7" width="24" height="24" transform="matrix(0.899, 0.438, -0.438, 0.899, 118.489, 78.051)" fill="#ff12c8"/>
      <rect id="Rectangle_8-3" data-name="Rectangle 8" width="24" height="24" transform="translate(116.459 53.906) rotate(-5)" fill="#ff12c8"/>
      <rect id="Rectangle_9-3" data-name="Rectangle 9" width="24" height="24" transform="translate(122.375 20.183) rotate(53)" fill="#ff12c8"/>
      <rect id="Rectangle_10-3" data-name="Rectangle 10" width="24" height="24" transform="matrix(0.809, 0.588, -0.588, 0.809, 20.898, 19.771)" fill="#ff12c8"/>
      <rect id="Rectangle_11-3" data-name="Rectangle 11" width="24" height="24" transform="translate(3.34 52.156) rotate(8)" fill="#ff12c8"/>
      <rect id="Rectangle_12-3" data-name="Rectangle 12" width="24" height="24" transform="translate(22.993 78.675) rotate(71)" fill="#ff12c8"/>
      <rect id="Rectangle_13-3" data-name="Rectangle 13" width="24" height="24" transform="matrix(0.391, 0.921, -0.921, 0.391, 50.303, 2.097)" fill="#ff12c8"/>
    </g>
  </g>
</svg>
